<svg xmlns="http://www.w3.org/2000/svg" xmlns:xlink="http://www.w3.org/1999/xlink" xmlns:lucid="lucid" width="1851.83" height="667.31"><g transform="translate(-20 -160)" lucid:page-tab-id="0_0"><path d="M419.6 509.58v-40M419.6 509.55v1.03" stroke="#333" stroke-width="2" fill="none"/><path d="M419.6 454.3l4.63 14.28h-9.27z" stroke="#333" stroke-width="2" fill="#333"/><path d="M419.6 429.08v-116.5c0-6.63 5.36-12 12-12h1265.6c.17 0 .3-.13.3-.3 0-.15.13-.28.3-.28h3.2" stroke="#333" stroke-width="2" fill="none"/><path d="M420.6 430.08h-2v-1.03h2z" fill="#333"/><path d="M1716.26 300l-14.26 4.64v-9.28z" stroke="#333" stroke-width="2" fill="#333"/><path d="M100 478.58c0-4.42 3.58-8 8-8h95.83c4.42 0 8 3.58 8 8v64c0 4.42-3.58 8-8 8H108c-4.42 0-8-3.58-8-8z" stroke="#333" fill="#3aa6dd"/><use xlink:href="#a" transform="matrix(1,0,0,1,105,475.5776119784494) translate(34.025 38.6)"/><path d="M212.83 510.58h49.2" stroke="#333" fill="none"/><path d="M212.84 511.08h-.5v-1h.5z" fill="#333"/><path d="M276.8 510.58l-14.26 4.63v-9.26z" stroke="#333" fill="#333"/><path d="M278.92 478.58c0-4.42 3.6-8 8-8h95.83c4.42 0 8 3.58 8 8v64c0 4.42-3.58 8-8 8h-95.83c-4.4 0-8-3.58-8-8z" stroke="#333" fill="#3aa6dd"/><use xlink:href="#b" transform="matrix(1,0,0,1,283.92473118279577,475.5776119784494) translate(35.525 38.6)"/><path d="M457.85 478.58c0-4.42 3.58-8 8-8h95.83c4.42 0 8 3.58 8 8v64c0 4.42-3.58 8-8 8h-95.83c-4.42 0-8-3.58-8-8z" stroke="#333" fill="#3aa6dd"/><use xlink:href="#c" transform="matrix(1,0,0,1,462.8494623655914,475.5776119784494) translate(34.525 17)"/><use xlink:href="#d" transform="matrix(1,0,0,1,462.8494623655914,475.5776119784494) translate(15.049999999999997 38.6)"/><use xlink:href="#e" transform="matrix(1,0,0,1,462.8494623655914,475.5776119784494) translate(2.0999999999999943 60.2)"/><path d="M636.77 478.58c0-4.42 3.6-8 8-8h95.83c4.42 0 8 3.58 8 8v64c0 4.42-3.58 8-8 8h-95.83c-4.4 0-8-3.58-8-8z" stroke="#333" fill="#3aa6dd"/><use xlink:href="#f" transform="matrix(1,0,0,1,641.7741935483872,475.5776119784494) translate(32.55 17)"/><use xlink:href="#d" transform="matrix(1,0,0,1,641.7741935483872,475.5776119784494) translate(15.049999999999997 38.6)"/><use xlink:href="#e" transform="matrix(1,0,0,1,641.7741935483872,475.5776119784494) translate(2.0999999999999943 60.2)"/><path d="M1352.47 478.58c0-4.42 3.58-8 8-8h95.83c4.42 0 8 3.58 8 8v64c0 4.42-3.58 8-8 8h-95.83c-4.42 0-8-3.58-8-8z" stroke="#333" fill="#f9d2de"/><use xlink:href="#g" transform="matrix(1,0,0,1,1357.47311827957,475.5776119784494) translate(20.049999999999997 27.799999999999997)"/><use xlink:href="#h" transform="matrix(1,0,0,1,1357.47311827957,475.5776119784494) translate(21.574999999999996 49.4)"/><use xlink:href="#i" transform="matrix(1,0,0,1,1357.47311827957,475.5776119784494) translate(70.42500000000001 49.4)"/><path d="M1173.55 478.58c0-4.42 3.58-8 8-8h95.83c4.4 0 8 3.58 8 8v64c0 4.42-3.6 8-8 8h-95.83c-4.42 0-8-3.58-8-8z" stroke="#333" fill="#7ab648"/><use xlink:href="#f" transform="matrix(1,0,0,1,1178.5483870967741,475.5776119784494) translate(32.55 17)"/><use xlink:href="#d" transform="matrix(1,0,0,1,1178.5483870967741,475.5776119784494) translate(15.049999999999997 38.6)"/><use xlink:href="#j" transform="matrix(1,0,0,1,1178.5483870967741,475.5776119784494) translate(20.9 60.2)"/><path d="M994.62 478.58c0-4.42 3.6-8 8-8h95.83c4.42 0 8 3.58 8 8v64c0 4.42-3.58 8-8 8h-95.83c-4.4 0-8-3.58-8-8z" stroke="#333" fill="#f9d2de"/><use xlink:href="#g" transform="matrix(1,0,0,1,999.6236559139785,475.5776119784494) translate(20.049999999999997 27.799999999999997)"/><use xlink:href="#h" transform="matrix(1,0,0,1,999.6236559139785,475.5776119784494) translate(21.574999999999996 49.4)"/><use xlink:href="#k" transform="matrix(1,0,0,1,999.6236559139785,475.5776119784494) translate(70.42500000000001 49.4)"/><path d="M815.7 478.58c0-4.42 3.58-8 8-8h95.83c4.42 0 8 3.58 8 8v64c0 4.42-3.58 8-8 8H823.7c-4.42 0-8-3.58-8-8z" stroke="#333" fill="#ef8d22"/><use xlink:href="#l" transform="matrix(1,0,0,1,820.6989247311828,475.5776119784494) translate(2.0999999999999943 38.6)"/><use xlink:href="#m" transform="matrix(1,0,0,1,820.6989247311828,475.5776119784494) translate(46 38.6)"/><path d="M1531.4 478.58c0-4.42 3.58-8 8-8h95.83c4.4 0 8 3.58 8 8v64c0 4.42-3.6 8-8 8h-95.83c-4.42 0-8-3.58-8-8z" stroke="#333" fill="#7ab648"/><use xlink:href="#c" transform="matrix(1,0,0,1,1536.3978494623657,475.5776119784494) translate(34.525 17)"/><use xlink:href="#d" transform="matrix(1,0,0,1,1536.3978494623657,475.5776119784494) translate(15.049999999999997 38.6)"/><use xlink:href="#j" transform="matrix(1,0,0,1,1536.3978494623657,475.5776119784494) translate(20.9 60.2)"/><path d="M1720 479.22c0-4.42 3.58-8 8-8h95.83c4.42 0 8 3.58 8 8v64c0 4.42-3.58 8-8 8H1728c-4.42 0-8-3.58-8-8z" stroke="#333" fill="#3aa6dd"/><use xlink:href="#n" transform="matrix(1,0,0,1,1725,476.2198083757465) translate(10.125 27.799999999999997)"/><use xlink:href="#o" transform="matrix(1,0,0,1,1725,476.2198083757465) translate(54.025000000000006 27.799999999999997)"/><use xlink:href="#p" transform="matrix(1,0,0,1,1725,476.2198083757465) translate(23.549999999999997 49.4)"/><path d="M212.83 510.58h49.2" stroke="#333" fill="none"/><path d="M212.84 511.08h-.5v-1h.5z" fill="#333"/><path d="M276.8 510.58l-14.26 4.63v-9.26z" stroke="#333" fill="#333"/><path d="M391.75 510.58h49.22" stroke="#333" fill="none"/><path d="M391.77 511.08h-.52v-1h.52z" fill="#333"/><path d="M455.73 510.58l-14.26 4.63v-9.26z" stroke="#333" fill="#333"/><path d="M570.68 510.58h49.2" stroke="#333" fill="none"/><path d="M570.7 511.08h-.52v-1h.5z" fill="#333"/><path d="M634.66 510.58l-14.27 4.63v-9.26z" stroke="#333" fill="#333"/><path d="M749.6 510.58h49.22" stroke="#333" fill="none"/><path d="M749.6 511.08h-.5v-1h.5z" fill="#333"/><path d="M813.58 510.58l-14.26 4.63v-9.26z" stroke="#333" fill="#333"/><path d="M928.53 510.58h49.2" stroke="#333" fill="none"/><path d="M928.54 511.08h-.5v-1h.5z" fill="#333"/><path d="M992.5 510.58l-14.26 4.63v-9.26z" stroke="#333" fill="#333"/><path d="M1107.45 510.58h49.2" stroke="#333" fill="none"/><path d="M1107.46 511.08h-.5v-1h.5z" fill="#333"/><path d="M1171.43 510.58l-14.27 4.63v-9.26z" stroke="#333" fill="#333"/><path d="M1286.38 510.58h49.2" stroke="#333" fill="none"/><path d="M1286.4 511.08h-.52v-1h.5z" fill="#333"/><path d="M1350.36 510.58l-14.27 4.63v-9.26z" stroke="#333" fill="#333"/><path d="M1465.3 510.58h49.2" stroke="#333" fill="none"/><path d="M1465.3 511.08h-.5v-1h.5z" fill="#333"/><path d="M1529.28 510.58L1515 515.2v-9.26z" stroke="#333" fill="#333"/><path d="M1644.23 510.58h37.06c.17 0 .3.14.3.32s.16.32.33.32h21.2" stroke="#333" fill="none"/><path d="M1644.24 511.08h-.5v-1h.5z" fill="#333"/><path d="M1717.88 511.22l-14.26 4.64v-9.28z" stroke="#333" fill="#333"/><path d="M80 458.58c0-4.42 3.58-8 8-8h4c4.42 0 8 3.58 8 8v4c0 4.42-3.58 8-8 8h-4c-4.42 0-8-3.58-8-8z" stroke="#333" fill="#e5e5e5"/><use xlink:href="#q" transform="matrix(1,0,0,1,85,455.5776119784494) translate(1.9135802469135803 8.88888888888889)"/><path d="M235.38 458.58c0-4.42 3.58-8 8-8h4c4.4 0 8 3.58 8 8v4c0 4.42-3.6 8-8 8h-4c-4.42 0-8-3.58-8-8z" stroke="#333" fill="#e5e5e5"/><use xlink:href="#r" transform="matrix(1,0,0,1,240.37634408602153,455.5776119784494) translate(1.9135802469135803 8.88888888888889)"/><path d="M593.23 459.22c0-4.42 3.58-8 8-8h4c4.4 0 8 3.58 8 8v4c0 4.42-3.6 8-8 8h-4c-4.42 0-8-3.58-8-8z" stroke="#333" fill="#e5e5e5"/><use xlink:href="#s" transform="matrix(1,0,0,1,598.2258064516129,456.21980837571596) translate(-2.716049382716049 8.88888888888889)"/><path d="M409.6 438.58c0-4.42 3.57-8 8-8h4c4.4 0 8 3.58 8 8v4c0 4.42-3.6 8-8 8h-4c-4.43 0-8-3.58-8-8z" stroke="#333" fill="#e5e5e5"/><use xlink:href="#t" transform="matrix(1,0,0,1,414.5910420903369,435.5776119784494) translate(-1.1728395061728394 8.88888888888889)"/><path d="M745.25 459c0-4.4 3.58-8 8-8h4c4.42 0 8 3.6 8 8v4c0 4.43-3.58 8-8 8h-4c-4.42 0-8-3.57-8-8z" stroke="#333" fill="#e5e5e5"/><use xlink:href="#u" transform="matrix(1,0,0,1,750.248696640798,456.00986051011455) translate(1.9135802469135803 8.88888888888889)"/><use xlink:href="#v" transform="matrix(1,0,0,1,750.248696640798,456.00986051011455) translate(22.505 22.22222222222222)"/><path d="M800 459.22c0-4.42 3.58-8 8-8h4c4.42 0 8 3.58 8 8v4c0 4.42-3.58 8-8 8h-4c-4.42 0-8-3.58-8-8z" stroke="#333" fill="#e5e5e5"/><use xlink:href="#w" transform="matrix(1,0,0,1,805,456.2198083757465) translate(-2.716049382716049 8.88888888888889)"/><path d="M951.08 459.22c0-4.42 3.58-8 8-8h4c4.4 0 8 3.58 8 8v4c0 4.42-3.6 8-8 8h-4c-4.42 0-8-3.58-8-8z" stroke="#333" fill="#e5e5e5"/><use xlink:href="#x" transform="matrix(1,0,0,1,956.0752688172042,456.2198083757465) translate(1.9135802469135803 8.88888888888889)"/><path d="M1130 459.22c0-4.42 3.58-8 8-8h4c4.42 0 8 3.58 8 8v4c0 4.42-3.58 8-8 8h-4c-4.42 0-8-3.58-8-8z" stroke="#333" fill="#e5e5e5"/><use xlink:href="#y" transform="matrix(1,0,0,1,1135,456.2198083757465) translate(-2.716049382716049 8.88888888888889)"/><path d="M1308.92 459.22c0-4.42 3.6-8 8-8h4c4.42 0 8 3.58 8 8v4c0 4.42-3.58 8-8 8h-4c-4.4 0-8-3.58-8-8z" stroke="#333" fill="#e5e5e5"/><use xlink:href="#z" transform="matrix(1,0,0,1,1313.9247311827955,456.2198083757465) translate(-2.716049382716049 8.88888888888889)"/><path d="M1487.85 459.22c0-4.42 3.58-8 8-8h4c4.42 0 8 3.58 8 8v4c0 4.42-3.58 8-8 8h-4c-4.42 0-8-3.58-8-8z" stroke="#333" fill="#e5e5e5"/><use xlink:href="#A" transform="matrix(1,0,0,1,1492.8494623656152,456.2198083757465) translate(-2.716049382716049 8.88888888888889)"/><use xlink:href="#v" transform="matrix(1,0,0,1,1492.8494623656152,456.2198083757465) translate(22.505 22.22222222222222)"/><path d="M1643.23 458.58c0-4.42 3.58-8 8-8h4c4.4 0 8 3.58 8 8v4c0 4.42-3.6 8-8 8h-4c-4.42 0-8-3.58-8-8z" stroke="#333" fill="#e5e5e5"/><use xlink:href="#B" transform="matrix(1,0,0,1,1648.2258064516354,455.5776119784494) translate(1.9135802469135803 8.88888888888889)"/><path d="M1831.83 248c0-4.42 3.58-8 8-8h4c4.42 0 8 3.58 8 8v4c0 4.42-3.58 8-8 8h-4c-4.42 0-8-3.58-8-8z" stroke="#333" fill="#e5e5e5"/><use xlink:href="#C" transform="matrix(1,0,0,1,1836.8279569892472,245) translate(-1.1728395061728394 8.88888888888889)"/><path d="M1700 459.22c0-4.42 3.58-8 8-8h4c4.42 0 8 3.58 8 8v4c0 4.42-3.58 8-8 8h-4c-4.42 0-8-3.58-8-8z" stroke="#333" fill="#e5e5e5"/><use xlink:href="#D" transform="matrix(1,0,0,1,1705,456.2198083757465) translate(1.9135802469135803 8.88888888888889)"/><path d="M1765.9 459.22c0-4.42 3.6-8 8-8h4c4.43 0 8 3.58 8 8v4c0 4.42-3.57 8-8 8h-4c-4.4 0-8-3.58-8-8z" stroke="#333" fill="#e5e5e5"/><use xlink:href="#E" transform="matrix(1,0,0,1,1770.9139784946237,456.2198083757465) translate(1.9135802469135803 8.88888888888889)"/><path d="M1831.83 459.22c0-4.42 3.58-8 8-8h4c4.42 0 8 3.58 8 8v4c0 4.42-3.58 8-8 8h-4c-4.42 0-8-3.58-8-8z" stroke="#333" fill="#e5e5e5"/><use xlink:href="#F" transform="matrix(1,0,0,1,1836.8279569892472,456.2198083757465) translate(1.9135802469135803 8.88888888888889)"/><path d="M336.84 552.08v186.5h175.92" stroke="#333" stroke-width="2" fill="none"/><path d="M332.84 552.08v188.5l.58 1.4 1.42.6h177.92" stroke="#333" stroke-width="2" fill="none"/><path d="M337.84 552.1h-2v-1.02h2zM333.84 552.1h-2v-1.02h2z" fill="#333"/><path d="M512.74 738.58h1.02M512.74 742.58h1.02M515.76 552.08v186.5h1070.87v-186.5" stroke="#333" stroke-width="2" fill="none"/><path d="M511.76 552.08v188.5l.6 1.4 1.4.6h1074.87l1.4-.6.6-1.4v-188.5" stroke="#333" stroke-width="2" fill="none"/><path d="M516.76 552.1h-2v-1.02h2zM512.76 552.1h-2v-1.02h2zM1587.63 552.1h-2v-1.02h2zM1591.63 552.1h-2v-1.02h2z" fill="#333"/><path d="M694.7 552.08v88.82h534.63v-88.82" stroke="#333" stroke-width="2" fill="none"/><path d="M690.7 552.08v90.82l.57 1.4 1.42.6h538.63l1.42-.6.58-1.4v-90.82" stroke="#333" stroke-width="2" fill="none"/><path d="M695.7 552.1h-2v-1.02h2zM691.7 552.1h-2v-1.02h2zM1230.33 552.1h-2v-1.02h2zM1234.33 552.1h-2v-1.02h2z" fill="#333"/><path d="M40 508.58c0-4.42 3.58-8 8-8h4c4.42 0 8 3.58 8 8v4c0 4.42-3.58 8-8 8h-4c-4.42 0-8-3.58-8-8z" stroke="#333" fill="#e5e5e5"/><use xlink:href="#G" transform="matrix(1,0,0,1,45,505.5776119784494) translate(1.9135802469135803 8.88888888888889)"/><path d="M1018.03 278.7H1130v17.63h-111.97z" fill="#fff" fill-opacity="0"/><path d="M1020.68 279.46h4.8c2.7 0 4.02.98 4.02 2.9 0 1.03-.54 1.7-1.24 2.16-.6.4-1.3.58-2.13.76 1.65.52 2.42 1.54 2.42 2.9 0 2.58-2.17 3.85-5.3 3.85h-5.23v-.3c1.06-.16 1.27-.35 1.6-1.54l2.33-8.4c.13-.5.2-.95.2-1.24 0-.56-.26-.7-1.47-.8v-.3m2.27 5.58h.73c2.52 0 3.87-1.02 3.87-2.92 0-1.43-.7-2.08-2.25-2.08-.75 0-.95 0-1.14.7m-1.4 4.92l-.62 2.3c-.4 1.46-.67 2.44-.67 2.7 0 .53.48.8 1.3.8 2.2 0 3.7-1.14 3.7-3.28 0-1.2-.56-2.04-1.3-2.3-.37-.12-1.2-.22-2.4-.22M1034.62 288.45l.4 2.12c1.64-2.7 2.35-4.1 2.35-4.95 0-.27-.13-.38-.5-.6-.4-.26-.5-.46-.5-.77 0-.42.33-.7.77-.7.58 0 1 .47 1 1.05 0 1.1-.92 3.22-2.52 5.87-2 3.32-4.06 5.53-5.16 5.53-.58 0-.98-.33-.98-.83 0-.42.32-.77.75-.77.67 0 .67.54 1.17.54.25 0 .48-.15.93-.63.34-.36 1.2-1.5 1.36-1.75.1-.23.2-.46.2-.67 0-.77-1.07-5.08-1.6-6.4-.36-.94-.7-1.23-1.48-1.23-.2 0-.38.02-.6.08V284l.62-.1c.4-.1 1.02-.2 2.06-.36h.08c.3 0 1.3 3.2 1.64 4.9M1042.65 283.8l-.56 1.92c1.03-1.56 2.13-2.18 3.28-2.18 1.43 0 2.22.9 2.22 2.4 0 3.2-2.9 6.3-5.72 6.3-.45 0-.85-.07-1.33-.32-.33 1.35-.77 2.93-.77 3.2 0 .42.3.55 1.2.55v.3h-3.92v-.3c.83-.02 1.08-.3 1.3-1.2l2.23-8.33c.2-.77.3-1.27.3-1.37 0-.46-.54-.52-.85-.52h-.43l-.03-.28 3-.43c.05 0 .1.04.1.08l-.05.17m3.2 2.2c0-1.1-.3-1.63-1.18-1.63-1.02 0-2.16 1.04-2.6 2.2-.56 1.44-1.25 3.92-1.25 4.58 0 .42.38.73.92.73 1.02 0 1.95-.64 2.8-1.83.92-1.3 1.32-2.7 1.32-4.04M1057.13 289.9l.25.2c-1.45 1.76-1.9 2.13-2.68 2.13-.54 0-.77-.23-.77-.8 0-.47.04-.63.44-2.2-1.44 2.17-2.56 3.02-3.9 3.02-1.08 0-1.93-.77-1.93-2.24 0-2.97 2.95-6.46 5.5-6.46.83 0 1.4.4 1.55 1.12l.2-.92.06-.06 1.17-.14.14.06c-.04.17-.06.2-.12.4-.9 3.3-1.7 6.6-1.7 7 0 .13.1.24.26.24.18 0 .43-.15 1-.78m-1.36-5.38c0-.67-.4-1.1-1.08-1.1-.86 0-1.7.58-2.52 1.76-.8 1.2-1.48 2.92-1.48 4.14 0 1.06.46 1.42 1.15 1.42.97 0 1.88-1.06 2.46-1.88.9-1.3 1.48-2.97 1.48-4.34M1064.93 283.52l-.4 2.7h-.3c-.2-1.6-.77-2.23-1.7-2.23-.7 0-1.15.37-1.15 1.08 0 .52.3 1.08 1.04 1.97.97 1.1 1.3 1.86 1.3 2.62 0 1.6-1.16 2.58-2.76 2.58-.33 0-.62-.02-1.06-.2-.37-.15-.64-.17-.85-.17-.2 0-.42.1-.56.4h-.3l.37-3.06h.3c.28 1.83.93 2.62 1.94 2.62.9 0 1.47-.54 1.47-1.48 0-.62-.33-1.27-1.08-2.22-.84-1.04-1.22-1.9-1.22-2.52 0-1.27.9-2.08 2.33-2.08.33 0 .6.06 1.1.2.35.1.52.13.68.13.3 0 .42-.08.58-.35h.27M1072.42 283.52l-.4 2.7h-.3c-.2-1.6-.77-2.23-1.7-2.23-.68 0-1.15.37-1.15 1.08 0 .52.3 1.08 1.04 1.97.98 1.1 1.32 1.86 1.32 2.62 0 1.6-1.17 2.58-2.77 2.58-.33 0-.62-.02-1.06-.2-.38-.15-.64-.17-.86-.17-.2 0-.42.1-.56.4h-.3l.38-3.06h.3c.28 1.83.93 2.62 1.94 2.62.9 0 1.46-.54 1.46-1.48 0-.62-.33-1.27-1.08-2.22-.83-1.04-1.2-1.9-1.2-2.52 0-1.27.9-2.08 2.32-2.08.32 0 .6.06 1.08.2.36.1.54.13.7.13.28 0 .4-.08.57-.35h.27M1088 292.03h-4.7v-.3c1.2-.06 1.48-.37 1.48-1.02 0-.15-.02-.32-.04-.5l-.38-2.52h-4.24l-1.14 2.14c-.27.5-.42.96-.42 1.27 0 .36.3.6 1.2.63v.3h-3.6v-.3c.9-.18 1.15-.5 2.6-3l5.48-9.56h.5l1.77 10.65c.28 1.62.5 1.83 1.5 1.9v.3m-3.74-5.03l-.87-5.08-2.88 5.07h3.74M1094 280.5c0 .54-.44.98-.94.98-.56 0-.93-.4-.93-1.02 0-.6.4-1.02.9-1.02.53 0 .97.5.97 1.06m-.8 9.34l.24.2c-1.06 1.63-1.67 2.2-2.63 2.2-.63 0-.94-.34-.94-1.05 0-.4.14-1.07.43-2.15l.9-3.4c.1-.36.18-.7.18-.86 0-.4-.2-.45-1.23-.47v-.3c.75-.06 1.14-.12 3.08-.5l.08.07-1.8 6.6c-.1.33-.2.58-.2.85 0 .2.12.3.28.3.32 0 .8-.4 1.6-1.5M1097.68 287.74l.3-.67c.37-.8 1.03-1.83 1.82-2.66.5-.5 1.08-.86 1.52-.86.54 0 .9.4.9.98s-.32 1.04-.9 1.04c-.35 0-.5-.2-.67-.5-.12-.2-.18-.27-.3-.27-.36 0-.9.63-1.6 1.8-.82 1.43-1.17 2.2-2.13 5.43h-1.46l1.56-5.62c.27-1 .3-1.16.3-1.57 0-.4-.34-.5-.73-.5-.16 0-.3.02-.6.06v-.34l2.98-.52.06.04M1112.35 295.13l-.23.3c-3.04-1.72-4.7-4.97-4.7-8.25 0-3.56 1.68-6.33 4.76-8.16l.17.3c-2.67 2.3-3.27 4.1-3.27 7.8 0 3.6.58 5.76 3.27 8M1123.5 283.8l-2.73 5.02v.35c0 .92.23 1.9.65 1.9.27 0 .58-.36.98-1.42l.3.13c-.4 1.43-1 2.43-1.93 2.43-.73 0-.96-.84-1-2-.97 1.16-2.3 2.05-3.74 2.05-1.87 0-2.58-1.3-2.58-2.93 0-1.56.67-3.2 1.75-4.3.85-.86 2.14-1.48 3.33-1.48 1.64 0 2.43 1.16 2.43 2.3l.9-2.05h1.64m-3.66 3c0-1.3-.25-2.85-1.48-2.85-1.2 0-3.33 2.62-3.33 5.68 0 1.1.35 2.2 1.33 2.2 1.35 0 2.66-2.6 3.18-3.67.07-.36.3-.84.3-1.36M1124.12 279.33l.23-.3c2.95 1.76 4.7 4.97 4.7 8.25 0 3.56-1.7 6.3-4.76 8.16l-.18-.3c2.73-2.26 3.27-4.07 3.27-7.8 0-3.6-.5-5.82-3.28-8"/><path d="M740 330.58h100v17.58H740z" fill="#fff" fill-opacity="0"/><path d="M742.62 331.47h4.77c2.64 0 3.96.98 3.96 2.87 0 1.03-.54 1.7-1.22 2.15-.6.4-1.3.56-2.12.73v.02c1.64.5 2.4 1.5 2.4 2.86 0 2.57-2.15 3.83-5.24 3.83h-5.2v-.3c1.06-.16 1.27-.35 1.6-1.53l2.3-8.32c.13-.47.2-.93.2-1.22 0-.55-.26-.7-1.46-.78v-.3m2.25 5.53h.73c2.5 0 3.83-1 3.83-2.9 0-1.4-.7-2.05-2.23-2.05-.74 0-.94 0-1.13.68m-1.4 4.9l-.6 2.25c-.38 1.45-.67 2.43-.67 2.67 0 .54.48.8 1.28.8 2.2 0 3.68-1.12 3.68-3.24 0-1.17-.55-2-1.27-2.26-.4-.13-1.22-.22-2.42-.22M757.12 331l-2.92 11.15c-.1.35-.15.67-.15.82 0 .23.13.35.32.35.3 0 .73-.3 1.28-1.1l.47-.66.27.2c-1.15 1.8-1.86 2.38-2.9 2.38-.6 0-.92-.36-.92-1.07 0-.15.02-.38.07-.57l2.62-10c.05-.2.05-.3.05-.36 0-.23-.32-.42-.93-.42h-.35v-.3c1.12-.14 1.83-.27 2.95-.52M763.96 341.85l.23.23c-1.1 1.33-2.32 2.06-3.9 2.06-1.54 0-2.57-1.03-2.57-2.6 0-2.97 2.84-6.02 5.7-6.02 1 0 1.56.5 1.56 1.3 0 1.63-2 3.12-5.42 3.56-.2.38-.2.88-.2 1.16 0 1.05.7 1.74 1.78 1.74.84 0 1.43-.3 2.8-1.43m-3.93-2.73l-.32.84c1.65-.4 2.38-.74 3.08-1.4.6-.58.95-1.27.95-1.86 0-.46-.13-.74-.66-.74-1.1 0-2.4 1.46-3.04 3.16M772.43 341.85l.23.23c-1.1 1.33-2.3 2.06-3.9 2.06-1.54 0-2.57-1.03-2.57-2.6 0-2.97 2.84-6.02 5.7-6.02 1 0 1.56.5 1.56 1.3 0 1.63-2 3.12-5.42 3.56-.2.38-.2.88-.2 1.16 0 1.05.72 1.74 1.8 1.74.83 0 1.42-.3 2.8-1.43m-3.94-2.73l-.32.84c1.64-.4 2.36-.74 3.07-1.4.6-.58.95-1.27.95-1.86 0-.46-.13-.74-.67-.74-1.08 0-2.38 1.46-3.03 3.16M784.03 330.9l.1.12-.73 2.9-1.15 4.17c-.6 2.17-1.24 4.38-1.24 4.68 0 .23.1.4.36.4.32 0 .53-.2 1.56-1.37l.23.2c-.94 1.4-1.85 2.18-2.8 2.18-.5 0-.8-.35-.8-.86 0-.44.05-.75.26-1.7-1.1 1.9-2.1 2.52-3.38 2.52-1.24 0-2.04-.78-2.04-2.23 0-3.08 3.1-6.38 5.57-6.38.8 0 1.12.36 1.23 1.1h.02l.86-3.1c.3-1.02.27-1.1.27-1.36 0-.4-.17-.46-1.22-.5v-.32c1.23-.1 1.92-.23 2.93-.44m-3.15 6.14c0-.68-.46-1.08-.9-1.08-.53 0-1.2.32-1.73.87-1.26 1.34-2.2 3.42-2.2 5 0 .88.42 1.4 1.1 1.4 1.75 0 3.73-3.3 3.73-6.2M799.13 343.93h-4.67v-.3c1.2-.06 1.47-.37 1.47-1.02 0-.14-.02-.3-.04-.48l-.4-2.5h-4.2l-1.1 2.1c-.28.5-.43.97-.43 1.27 0 .36.28.58 1.18.62v.3h-3.55v-.3c.88-.17 1.13-.5 2.56-2.97l5.43-9.46h.5l1.74 10.53c.27 1.6.48 1.82 1.5 1.9v.3m-3.73-5l-.85-5-2.84 5h3.7M805.08 332.5c0 .54-.44.98-.93.98-.56 0-.92-.4-.92-1s.38-1.02.9-1.02c.5 0 .95.5.95 1.04m-.8 9.25l.25.2c-1.05 1.62-1.66 2.2-2.6 2.2-.64 0-.95-.36-.95-1.06 0-.4.13-1.06.42-2.13l.92-3.37c.1-.35.17-.7.17-.84 0-.38-.2-.44-1.23-.46v-.3c.74-.06 1.12-.12 3.05-.48l.07.05-1.8 6.55c-.1.32-.2.57-.2.84 0 .2.13.28.28.28.32 0 .78-.4 1.6-1.5M808.7 339.68l.3-.67c.37-.8 1.02-1.8 1.8-2.62.5-.52 1.07-.86 1.5-.86.54 0 .9.4.9.97 0 .56-.32 1.02-.9 1.02-.33 0-.5-.2-.66-.5-.1-.2-.17-.26-.3-.26-.35 0-.88.63-1.57 1.8-.82 1.4-1.16 2.16-2.1 5.37h-1.46l1.55-5.57c.27-1 .3-1.16.3-1.56 0-.4-.34-.5-.72-.5-.15 0-.3.02-.6.06v-.33l2.97-.5.05.03M823.26 347l-.23.3c-3.02-1.7-4.66-4.94-4.66-8.18 0-3.53 1.66-6.27 4.7-8.08l.2.3c-2.66 2.27-3.26 4.04-3.26 7.72 0 3.55.6 5.7 3.26 7.94M823.64 346.35l2.6-9.44c.75-2.64 2.07-5.9 5.06-5.9 1.02 0 2.3.47 2.3 1.92 0 1.55-1.28 2.94-2.43 3.46.73.07 1.68.78 1.68 2.13 0 1.8-1.6 4.1-3.38 5.07-.74.42-1.54.57-2.36.57-.4 0-.75-.1-1.25-.33l-.72 2.55c-.23.82-.42 1.2-.6 1.5h-1.48c.17-.28.47-1.1.6-1.5m4.6-11.52l-2.17 8.24c0 .42.38.7.9.7 2.2 0 4.17-3.33 4.17-5.9 0-.66-.23-1.1-.76-1.1-.35 0-.64.14-.96.14-.35 0-.58-.18-.58-.4 0-.22.17-.47.84-.47.16 0 .56.12.82.12.82 0 1.72-1.9 1.72-3.02 0-1.46-.6-1.73-1.28-1.73-1.4 0-2.3 1.83-2.7 3.43M834.18 331.34l.23-.3c2.93 1.75 4.67 4.94 4.67 8.18 0 3.53-1.68 6.23-4.7 8.08l-.2-.3c2.72-2.23 3.26-4.03 3.26-7.73 0-3.56-.48-5.75-3.25-7.93"/><path d="M851.1 413H977v17.58H851.1z" fill="#fff" fill-opacity="0"/><path d="M864.22 413.68l-.7 3.8-.35-.05c-.22-2.04-1.16-3.1-2.83-3.1-1.4 0-2.75.72-3.8 1.84-1.37 1.47-2.05 3.64-2.05 5.74 0 2.68 1.2 3.9 3.32 3.9 1.56 0 2.7-.54 4.36-2.25l.35.28c-1.72 2.02-3.24 2.84-5.2 2.84-2.92 0-4.98-1.83-4.98-4.97 0-2.7 1.47-5.18 3.57-6.67 1.2-.87 2.66-1.4 4.17-1.4.62 0 1.42.05 2.22.33.38.14.6.14.78.14.38 0 .57-.12.72-.42h.4M873.14 420.6c0 1.44-.76 3.12-2.02 4.36-1.1 1.1-2.33 1.58-3.58 1.58-1.8 0-2.8-1-2.8-2.65 0-2.14 1.43-4.33 3.43-5.4.74-.4 1.5-.57 2.28-.57 1.54 0 2.7 1 2.7 2.66m-1.6-.48c0-1.16-.55-1.8-1.37-1.8-.83 0-1.67.6-2.43 1.74-.88 1.33-1.4 2.84-1.4 4.34 0 1.15.58 1.74 1.47 1.74.84 0 1.56-.55 2.3-1.58.88-1.2 1.42-3 1.42-4.44M882.68 420.6c0 1.44-.76 3.12-2.02 4.36-1.1 1.1-2.32 1.58-3.58 1.58-1.8 0-2.8-1-2.8-2.65 0-2.14 1.43-4.33 3.43-5.4.75-.4 1.5-.57 2.3-.57 1.54 0 2.68 1 2.68 2.66m-1.6-.48c0-1.16-.53-1.8-1.35-1.8-.84 0-1.68.6-2.44 1.74-.9 1.33-1.42 2.84-1.42 4.34 0 1.15.6 1.74 1.5 1.74.83 0 1.55-.55 2.3-1.58.87-1.2 1.4-3 1.4-4.44M888.6 413.4l-2.9 11.16c-.1.34-.16.66-.16.82 0 .22.13.34.32.34.3 0 .73-.3 1.28-1.1l.48-.65.26.2c-1.14 1.8-1.85 2.37-2.87 2.37-.6 0-.93-.36-.93-1.07 0-.15.02-.38.08-.57l2.6-9.98c.07-.2.07-.3.07-.36 0-.23-.33-.42-.94-.42h-.34v-.3c1.12-.14 1.83-.28 2.95-.52M893.66 414.92c0 .53-.44.97-.94.97-.55 0-.9-.4-.9-1.02 0-.6.37-1 .88-1 .52 0 .96.48.96 1.04m-.8 9.24l.24.2c-1.04 1.6-1.65 2.18-2.6 2.18-.64 0-.94-.34-.94-1.05 0-.4.13-1.06.42-2.12l.9-3.38c.1-.34.18-.68.18-.83 0-.4-.2-.44-1.2-.46v-.3c.73-.05 1.1-.1 3.03-.47l.07.05-1.8 6.54c-.1.32-.18.57-.18.84 0 .2.1.28.25.28.33 0 .8-.4 1.6-1.48M902.7 424.1l.25.25c-1.3 1.77-1.77 2.15-2.67 2.15-.47 0-.9-.3-.9-1.03 0-.2.05-.44.3-1.43l.85-3.08c.16-.6.27-1.28.27-1.5 0-.35-.17-.56-.46-.56-.76 0-1.62.93-2.82 2.7-.85 1.28-1 1.72-1.9 4.73h-1.43l1.82-6.67c.02-.1.04-.2.04-.32 0-.38-.27-.5-1.24-.52v-.3c1.54-.3 2.07-.38 3.08-.6l.08.05-1.28 4.15c1.9-3.05 3.18-4.2 4.4-4.2.82 0 1.24.48 1.24 1.17 0 .33-.07.73-.2 1.13l-1.05 3.87c-.2.7-.28 1-.28 1.16 0 .17.07.34.3.34.27 0 .6-.3 1.17-1 .12-.16.25-.33.4-.5M912.44 419.36h-.93c.18.34.18.64.18.97 0 1.6-1.76 3.12-3.53 3.12-.2 0-.42-.02-.6-.06-.04-.02-.08-.02-.12-.02-.32 0-.7.38-.7.78 0 .34.53.6 1.37.8 1.82.44 2.7 1.27 2.7 2.42 0 1.65-1.47 2.87-4 2.87-1.94 0-3.18-.68-3.18-2.05 0-.98.36-1.5 2.23-2.6-.35-.22-.52-.5-.52-.76 0-.55.44-1.12 1.47-1.6-1.07-.38-1.5-1.06-1.5-2.05 0-1.96 1.9-3.27 3.82-3.27.73 0 1.36.17 1.87.53.14.12.24.15.3.15h1.14v.76m-2.27.34c0-1-.36-1.35-1.06-1.35-1.18 0-2.32 1.4-2.32 3.27 0 .9.42 1.43 1.14 1.43.65 0 1.17-.34 1.62-1.12.38-.65.63-1.43.63-2.23m-.5 8.34c0-.87-.7-1.4-2.74-2.04l-.64-.2c-.2 0-1 .64-1.25 1-.3.35-.38.65-.38 1.1 0 1.32.9 1.93 2.42 1.93 1.53 0 2.56-.82 2.56-1.8M927.97 426.33h-4.67v-.3c1.2-.06 1.47-.37 1.47-1.02 0-.14-.02-.3-.04-.48l-.38-2.5h-4.2l-1.12 2.12c-.27.5-.42.95-.42 1.26 0 .36.3.6 1.2.62v.3h-3.55v-.3c.88-.17 1.12-.5 2.55-2.97l5.43-9.45h.5l1.75 10.54c.27 1.6.48 1.8 1.5 1.88v.3m-3.73-4.98l-.86-5-2.85 5h3.7M933.9 414.92c0 .53-.43.97-.92.97-.56 0-.92-.4-.92-1.02 0-.6.38-1 .9-1 .5 0 .95.48.95 1.04m-.8 9.24l.26.2c-1.05 1.6-1.66 2.18-2.6 2.18-.64 0-.95-.34-.95-1.05 0-.4.15-1.06.43-2.12l.92-3.38c.1-.34.17-.68.17-.83 0-.4-.2-.44-1.22-.46v-.3c.74-.05 1.12-.1 3.05-.47l.07.05-1.8 6.54c-.08.32-.18.57-.18.84 0 .2.12.28.27.28.33 0 .8-.4 1.6-1.48M937.53 422.08l.3-.67c.37-.8 1-1.8 1.8-2.62.5-.5 1.06-.85 1.5-.85.53 0 .9.4.9.97s-.33 1.03-.9 1.03c-.34 0-.5-.2-.67-.5-.1-.2-.17-.26-.3-.26-.34 0-.88.62-1.56 1.8-.82 1.4-1.17 2.16-2.12 5.36h-1.45l1.55-5.56c.26-1 .3-1.17.3-1.57 0-.4-.34-.5-.72-.5-.15 0-.3.03-.6.07v-.33l2.96-.5.06.03M952.06 429.4l-.22.3c-3-1.7-4.65-4.93-4.65-8.17 0-3.53 1.65-6.27 4.7-8.08l.16.3c-2.64 2.27-3.23 4.04-3.23 7.72 0 3.54.57 5.7 3.23 7.93M960.62 417.93l-.34 2.45h-.3c-.14-.87-.5-2.03-1.9-2.03-1.3 0-2.62 1.98-2.93 3.3h3.4l-.1.62h-3.43c-.15.48-.2.84-.2 1.3 0 1.4.58 2.28 1.7 2.28 1.07 0 1.72-.47 2.8-1.56l.3.18c-1.06 1.3-1.9 2.06-3.8 2.06-1.74 0-2.63-1.3-2.63-2.88 0-2.7 2.3-5.73 5-5.73.9 0 1.2.32 1.7.32.24 0 .36-.15.4-.32h.32M968.6 426.33h-5.26v-.3c1.4-.06 1.8-.46 1.8-1.5v-8.56c0-.65-.16-.94-.56-.94-.2 0-.5.1-.86.23l-.5.2v-.28l3.4-1.73.17.06v11.38c0 .82.37 1.16 1.8 1.16v.3M971.17 413.76l.23-.3c2.92 1.74 4.65 4.92 4.65 8.16 0 3.53-1.68 6.23-4.7 8.08l-.18-.3c2.7-2.23 3.24-4.02 3.24-7.72 0-3.56-.46-5.75-3.23-7.92"/><path d="M1028.18 370.58h125.7v17.56h-125.7z" fill="#fff" fill-opacity="0"/><path d="M1041.3 371.26l-.72 3.8-.34-.05c-.23-2.03-1.16-3.1-2.83-3.1-1.4 0-2.73.73-3.78 1.85-1.37 1.47-2.05 3.64-2.05 5.73 0 2.66 1.22 3.9 3.33 3.9 1.56 0 2.7-.55 4.35-2.26l.35.28c-1.72 2.02-3.24 2.84-5.2 2.84-2.9 0-4.96-1.83-4.96-4.97 0-2.68 1.46-5.17 3.55-6.66 1.2-.86 2.66-1.38 4.16-1.38.63 0 1.43.04 2.23.33.37.13.6.13.77.13.38 0 .57-.1.72-.42h.4M1050.2 378.17c0 1.44-.77 3.12-2.03 4.35-1.1 1.1-2.32 1.58-3.57 1.58-1.8 0-2.8-1-2.8-2.64 0-2.13 1.43-4.32 3.43-5.38.74-.4 1.5-.58 2.28-.58 1.55 0 2.7 1 2.7 2.67m-1.6-.48c0-1.17-.54-1.8-1.36-1.8-.83 0-1.67.6-2.43 1.74-.87 1.33-1.4 2.83-1.4 4.33 0 1.14.6 1.73 1.48 1.73.84 0 1.56-.55 2.3-1.58.88-1.2 1.4-2.98 1.4-4.43M1059.72 378.17c0 1.44-.76 3.12-2.02 4.35-1.1 1.1-2.32 1.58-3.57 1.58-1.8 0-2.8-1-2.8-2.64 0-2.13 1.43-4.32 3.43-5.38.74-.4 1.5-.58 2.28-.58 1.54 0 2.68 1 2.68 2.67m-1.6-.48c0-1.17-.53-1.8-1.35-1.8-.83 0-1.67.6-2.43 1.74-.88 1.33-1.4 2.83-1.4 4.33 0 1.14.58 1.73 1.47 1.73.85 0 1.57-.55 2.32-1.58.87-1.2 1.4-2.98 1.4-4.43M1065.64 371l-2.9 11.12c-.1.35-.17.67-.17.82 0 .23.14.35.33.35.28 0 .72-.32 1.27-1.1l.48-.66.26.2c-1.13 1.8-1.83 2.36-2.86 2.36-.6 0-.93-.36-.93-1.06 0-.15.03-.38.1-.57l2.6-9.97c.05-.2.05-.3.05-.36 0-.23-.32-.42-.93-.42h-.35v-.3c1.13-.14 1.83-.27 2.95-.52M1070.68 372.5c0 .53-.44.97-.93.97-.56 0-.92-.4-.92-1s.38-1.02.9-1.02c.5 0 .95.5.95 1.05m-.8 9.23l.25.2c-1.05 1.6-1.66 2.17-2.6 2.17-.64 0-.94-.34-.94-1.04 0-.38.12-1.05.4-2.1l.92-3.38c.1-.34.17-.7.17-.84 0-.38-.2-.44-1.23-.46v-.3c.75-.06 1.13-.1 3.05-.48l.07.06-1.8 6.53c-.1.3-.18.56-.18.82 0 .2.1.3.26.3.32 0 .78-.4 1.6-1.5M1079.7 381.67l.26.25c-1.3 1.76-1.77 2.14-2.66 2.14-.48 0-.9-.3-.9-1.02 0-.2.04-.44.3-1.43l.85-3.07c.15-.6.26-1.28.26-1.5 0-.35-.16-.55-.44-.55-.77 0-1.62.93-2.82 2.7-.86 1.27-1 1.7-1.9 4.7h-1.43l1.84-6.64c.02-.1.04-.2.04-.33 0-.37-.27-.48-1.24-.5v-.3l3.08-.6.08.04-1.28 4.15c1.9-3.05 3.18-4.2 4.4-4.2.8 0 1.23.48 1.23 1.17 0 .34-.07.74-.2 1.14l-1.05 3.87c-.2.68-.27 1-.27 1.16 0 .17.08.34.3.34.27 0 .6-.3 1.17-1l.4-.5M1089.43 376.93h-.93c.17.34.17.65.17.97 0 1.6-1.75 3.12-3.52 3.12-.2 0-.4-.02-.6-.06h-.12c-.32 0-.68.37-.68.77 0 .34.5.58 1.35.8 1.82.43 2.7 1.27 2.7 2.4 0 1.66-1.47 2.88-4 2.88-1.94 0-3.17-.67-3.17-2.04 0-.97.36-1.5 2.22-2.6-.34-.22-.5-.5-.5-.75 0-.54.43-1.1 1.45-1.6-1.06-.37-1.5-1.05-1.5-2.04 0-1.94 1.9-3.26 3.82-3.26.73 0 1.36.18 1.87.54.14.1.24.15.3.15h1.13v.73m-2.26.34c0-1-.36-1.35-1.06-1.35-1.17 0-2.32 1.4-2.32 3.28 0 .9.42 1.42 1.15 1.42.64 0 1.16-.34 1.6-1.12.4-.65.64-1.43.64-2.23m-.5 8.34c0-.87-.7-1.4-2.73-2.03l-.65-.2c-.18 0-.98.64-1.25.98-.28.36-.38.67-.38 1.1 0 1.34.9 1.94 2.42 1.94 1.53 0 2.56-.82 2.56-1.8M1104.94 383.9h-4.66v-.3c1.2-.07 1.46-.37 1.46-1.02 0-.15-.02-.32-.04-.5l-.38-2.5h-4.18l-1.12 2.13c-.27.5-.42.96-.42 1.26 0 .36.28.6 1.18.63v.3h-3.54v-.3c.87-.18 1.12-.5 2.55-2.98l5.4-9.43h.5l1.75 10.5c.27 1.6.48 1.8 1.5 1.9v.3m-3.72-5l-.86-5-2.83 5h3.7M1110.87 372.5c0 .53-.43.97-.93.97-.55 0-.9-.4-.9-1s.37-1.02.88-1.02c.52 0 .95.5.95 1.05m-.8 9.23l.25.2c-1.05 1.6-1.65 2.17-2.6 2.17-.63 0-.94-.34-.94-1.04 0-.38.14-1.05.42-2.1l.9-3.38c.1-.34.2-.7.2-.84 0-.38-.2-.44-1.23-.46v-.3c.74-.06 1.12-.1 3.04-.48l.1.06-1.8 6.53c-.1.3-.2.56-.2.82 0 .2.12.3.28.3.32 0 .78-.4 1.6-1.5M1114.5 379.65l.3-.66c.35-.8 1-1.82 1.78-2.64.5-.5 1.06-.86 1.5-.86.53 0 .9.4.9.98 0 .57-.33 1.02-.9 1.02-.34 0-.5-.2-.66-.5-.12-.18-.17-.26-.3-.26-.35 0-.88.63-1.57 1.8-.82 1.4-1.16 2.16-2.1 5.35h-1.46l1.54-5.56c.26-1 .3-1.16.3-1.56 0-.4-.34-.5-.72-.5-.15 0-.3.02-.6.06v-.32l2.96-.52.05.04M1129 386.96l-.23.3c-3-1.7-4.64-4.93-4.64-8.16 0-3.52 1.66-6.26 4.7-8.07l.17.3c-2.64 2.27-3.23 4.04-3.23 7.7 0 3.55.57 5.7 3.23 7.93M1137.54 375.5l-.34 2.46h-.3c-.14-.88-.48-2.04-1.9-2.04-1.3 0-2.6 1.98-2.92 3.3h3.4l-.1.62h-3.43c-.15.48-.2.84-.2 1.3 0 1.38.58 2.28 1.7 2.28 1.07 0 1.7-.48 2.8-1.56l.3.2c-1.06 1.28-1.9 2.04-3.8 2.04-1.73 0-2.63-1.3-2.63-2.87 0-2.7 2.3-5.73 5-5.73.92 0 1.2.33 1.72.33.23 0 .34-.15.4-.33h.3M1147.03 381.3l-1.02 2.6h-7.43v-.23l3.4-3.6c1.77-1.88 2.46-3.33 2.46-4.95 0-1.73-1.03-2.68-2.65-2.68-1.37 0-2.03.6-2.8 2.48l-.4-.1c.4-2.23 1.63-3.8 3.96-3.8 2.15 0 3.52 1.48 3.52 3.36 0 1.5-.74 2.93-2.43 4.72l-3.14 3.35h4.44c.8 0 1.2-.2 1.83-1.28M1148.08 371.34l.23-.3c2.92 1.74 4.65 4.92 4.65 8.16 0 3.5-1.67 6.22-4.7 8.06l-.17-.3c2.7-2.23 3.23-4.02 3.23-7.7 0-3.56-.46-5.75-3.22-7.92"/><path d="M870.45 718.7h154.04v17.6H870.44z" fill="#fff" fill-opacity="0"/><path d="M881.25 728.62l-1.1 3.43h-9.7v-.3c1.06-.12 1.2-.3 1.55-1.5l2.33-8.34c.15-.5.2-.9.2-1.18 0-.55-.28-.74-1.46-.82v-.3h5.2v.3c-1.14.08-1.62.4-1.92 1.47l-2.3 8.18c-.1.44-.18.77-.18 1.03 0 .6.44.8 2 .8 1.9 0 2.5-.1 3.43-.74.62-.4 1.03-1.03 1.57-2.13M890.17 726.3c0 1.46-.76 3.14-2.02 4.38-1.1 1.1-2.32 1.58-3.58 1.58-1.8 0-2.8-1-2.8-2.65 0-2.12 1.43-4.32 3.43-5.4.74-.4 1.5-.56 2.3-.56 1.53 0 2.67 1 2.67 2.67m-1.6-.46c0-1.17-.53-1.8-1.35-1.8-.84 0-1.68.6-2.44 1.74-.88 1.33-1.4 2.84-1.4 4.35 0 1.14.58 1.73 1.47 1.73.84 0 1.57-.55 2.3-1.58.9-1.2 1.42-3 1.42-4.44M898.5 723.93l.6 6.7c2.5-3.12 3.15-4.13 3.15-4.95 0-.23-.12-.38-.42-.66-.3-.3-.4-.52-.4-.8 0-.3.32-.58.74-.58.57 0 1 .46 1 1.07 0 1.23-1.42 3.46-4.05 6.67l-.17.2c-.52.63-.7.83-.86.83-.15 0-.18-.18-.22-.67l-.55-5.9-1.7 2.9c-.34.56-.7 1.2-1.05 1.87-.7 1.32-1 1.8-1.22 1.8-.17 0-.2-.16-.25-.9l-.07-1.74c-.07-1.66-.28-3.7-.5-4.6-.18-.72-.35-.8-.9-.8h-.54v-.26c.58-.1 1.23-.17 1.8-.32.25-.06.42-.14.55-.14.2 0 .23.04.37.65.26 1.3.53 3.67.6 5.35l3.67-5.8c.08-.15.14-.2.24-.2.1 0 .15.07.15.28M910.54 719.6h4.6c2.8 0 4.15 1 4.15 2.82 0 1.03-.52 2.08-1.3 2.73-.88.72-2.22 1.1-3.9 1.1-.8 0-1.23-.05-1.73-.17l-1 3.68c-.14.52-.28.92-.28 1.2 0 .44.28.67 1.3.8v.3h-4.64v-.3c1.08-.17 1.26-.34 1.6-1.58l2.2-7.9c.26-.9.33-1.3.33-1.57 0-.5-.27-.66-1.36-.8v-.3m3.32 1.16l-1.32 4.68c.56.1.65.1 1 .1 1.18 0 1.84-.12 2.44-.47.83-.47 1.35-1.3 1.35-2.55 0-1.7-.92-2.35-2.48-2.35-.53 0-.88.15-1 .6M922.78 727.8l.3-.67c.37-.8 1.02-1.8 1.8-2.63.5-.5 1.07-.86 1.5-.86.54 0 .9.4.9.98 0 .57-.32 1.02-.9 1.02-.34 0-.5-.2-.66-.5-.1-.18-.17-.26-.3-.26-.35 0-.88.63-1.57 1.8-.82 1.4-1.16 2.17-2.12 5.37h-1.44l1.53-5.57c.27-1 .3-1.16.3-1.56 0-.4-.34-.5-.72-.5-.14 0-.3.02-.58.06v-.32l2.96-.52.05.04M934.1 729.97l.24.23c-1.1 1.34-2.3 2.06-3.9 2.06-1.54 0-2.57-1.03-2.57-2.6 0-2.97 2.85-6.02 5.7-6.02 1.02 0 1.57.5 1.57 1.3 0 1.64-2 3.13-5.42 3.57-.2.4-.2.88-.2 1.17 0 1.05.72 1.73 1.8 1.73.83 0 1.42-.3 2.8-1.43m-3.94-2.72l-.32.84c1.64-.4 2.36-.76 3.07-1.43.6-.57.95-1.25.95-1.85 0-.45-.13-.74-.67-.74-1.07 0-2.37 1.47-3.02 3.17M942.75 723.62l-.38 2.67h-.3c-.2-1.6-.77-2.22-1.7-2.22-.67 0-1.13.38-1.13 1.1 0 .5.3 1.06 1.03 1.93.95 1.12 1.3 1.86 1.3 2.6 0 1.6-1.17 2.56-2.75 2.56-.32 0-.6-.02-1.05-.2-.36-.14-.63-.16-.84-.16-.2 0-.42.1-.55.4h-.3l.38-3.03h.3c.27 1.8.92 2.6 1.9 2.6.9 0 1.46-.54 1.46-1.48 0-.62-.33-1.27-1.07-2.2-.82-1.03-1.2-1.9-1.2-2.5 0-1.26.9-2.06 2.3-2.06.33 0 .6.06 1.07.2.37.1.54.13.7.13.28 0 .4-.08.56-.35h.27M950.17 723.62l-.38 2.67h-.32c-.2-1.6-.76-2.22-1.7-2.22-.66 0-1.12.38-1.12 1.1 0 .5.28 1.06 1.03 1.93.94 1.12 1.28 1.86 1.28 2.6 0 1.6-1.16 2.56-2.74 2.56-.33 0-.6-.02-1.05-.2-.37-.14-.64-.16-.85-.16-.2 0-.42.1-.55.4h-.3l.37-3.03h.3c.28 1.8.92 2.6 1.92 2.6.88 0 1.44-.54 1.44-1.48 0-.62-.33-1.27-1.07-2.2-.82-1.03-1.2-1.9-1.2-2.5 0-1.26.9-2.06 2.3-2.06.33 0 .6.06 1.07.2.36.1.54.13.7.13.27 0 .4-.08.56-.35h.27M959.42 729.78l.26.17c-1.24 1.9-1.73 2.27-2.63 2.27-.57 0-.9-.32-.9-.9 0-.43.23-1.7.84-3.77-2.26 3.7-3.2 4.7-4.56 4.7-.67 0-1-.3-1-1 0-.36.16-1.05.5-2.44l.67-2.64c.16-.63.28-1.13.28-1.28 0-.13-.1-.28-.2-.34-.2-.1-.24-.12-.97-.12v-.26c1.1-.14 1.8-.27 2.87-.52l.08.06-1.7 6.77c-.02.06-.06.23-.06.3 0 .3.1.48.38.48.64 0 1.52-1 2.7-2.8.9-1.36 1.17-2.08 2.1-4.64h1.4l-1.5 5.72c-.1.36-.36 1.25-.36 1.48 0 .2.08.33.2.33.32 0 .62-.27 1.6-1.55M963.52 727.8l.3-.67c.36-.8 1-1.8 1.8-2.63.5-.5 1.06-.86 1.5-.86.53 0 .9.4.9.98 0 .57-.33 1.02-.9 1.02-.34 0-.5-.2-.67-.5-.1-.18-.17-.26-.3-.26-.35 0-.88.63-1.57 1.8-.82 1.4-1.16 2.17-2.1 5.37H961l1.54-5.57c.27-1 .3-1.16.3-1.56 0-.4-.34-.5-.72-.5-.15 0-.3.02-.6.06v-.32l2.97-.52.06.04M974.86 729.97l.23.23c-1.1 1.34-2.32 2.06-3.9 2.06-1.54 0-2.57-1.03-2.57-2.6 0-2.97 2.84-6.02 5.7-6.02 1 0 1.56.5 1.56 1.3 0 1.64-2 3.13-5.42 3.57-.2.4-.2.88-.2 1.17 0 1.05.7 1.73 1.78 1.73.84 0 1.43-.3 2.8-1.43m-3.93-2.72l-.32.84c1.65-.4 2.37-.76 3.08-1.43.6-.57.95-1.25.95-1.85 0-.45-.13-.74-.66-.74-1.1 0-2.4 1.47-3.04 3.17M990.42 719.33l-.76 3.82-.34-.06c0-1.96-.42-3.12-2.27-3.12-1.32 0-2.14.7-2.14 1.9 0 .94.16 1.25 1.9 2.98 1.74 1.76 2.15 2.58 2.15 3.82 0 2.17-1.65 3.72-3.85 3.72-.6 0-1.1-.14-1.98-.44-.52-.2-.7-.23-.9-.23-.38 0-.68.17-.82.6h-.34l.65-4.26.4.03c-.05.18-.05.3-.05.44 0 1.87 1.15 3.2 2.75 3.2 1.47 0 2.5-1 2.5-2.45 0-.83-.27-1.4-1.15-2.36l-.74-.8c-.26-.3-.5-.55-.74-.8-1.14-1.22-1.43-1.83-1.43-2.86 0-2 1.57-3.13 3.4-3.13.6 0 1.22.1 1.62.27.4.15.63.2.88.2.42 0 .6-.1.85-.5h.44M994.54 723.9l-.55 1.9c1.02-1.55 2.1-2.16 3.25-2.16 1.4 0 2.2.9 2.2 2.4 0 3.13-2.9 6.22-5.67 6.22-.44 0-.84-.07-1.32-.32-.32 1.33-.76 2.9-.76 3.16 0 .42.3.56 1.18.56v.3H989v-.3c.83-.02 1.08-.3 1.3-1.2l2.2-8.24c.2-.77.3-1.26.3-1.36 0-.45-.53-.5-.83-.5h-.42l-.04-.3 2.98-.42c.06 0 .1.04.1.08l-.04.17m3.2 2.18c0-1.08-.34-1.62-1.2-1.62-1 0-2.13 1.03-2.57 2.18-.55 1.43-1.24 3.9-1.24 4.54 0 .4.38.72.92.72 1 0 1.92-.63 2.76-1.8.93-1.3 1.33-2.68 1.33-4.02M1008.98 726.3c0 1.46-.77 3.14-2.02 4.38-1.1 1.1-2.33 1.58-3.6 1.58-1.78 0-2.8-1-2.8-2.65 0-2.12 1.44-4.32 3.44-5.4.74-.4 1.5-.56 2.3-.56 1.53 0 2.68 1 2.68 2.67m-1.6-.46c0-1.17-.54-1.8-1.36-1.8-.84 0-1.68.6-2.44 1.74-.88 1.33-1.4 2.84-1.4 4.35 0 1.14.58 1.73 1.48 1.73.84 0 1.56-.55 2.3-1.58.88-1.2 1.42-3 1.42-4.44M1018.53 726.3c0 1.46-.76 3.14-2.02 4.38-1.1 1.1-2.32 1.58-3.57 1.58-1.8 0-2.8-1-2.8-2.65 0-2.12 1.42-4.32 3.42-5.4.75-.4 1.5-.56 2.3-.56 1.54 0 2.68 1 2.68 2.67m-1.6-.46c0-1.17-.53-1.8-1.35-1.8-.84 0-1.68.6-2.45 1.74-.87 1.33-1.4 2.84-1.4 4.35 0 1.14.58 1.73 1.48 1.73.85 0 1.57-.55 2.32-1.58.88-1.2 1.4-3 1.4-4.44M1024.46 719.12l-2.92 11.16c-.1.34-.15.67-.15.82 0 .23.13.34.32.34.28 0 .72-.3 1.27-1.08l.47-.67.27.18c-1.15 1.8-1.85 2.38-2.88 2.38-.6 0-.94-.36-.94-1.07 0-.16.02-.4.08-.58l2.6-10c.07-.18.07-.3.07-.35 0-.23-.32-.42-.93-.42h-.35v-.3c1.12-.14 1.82-.27 2.95-.52"/><path d="M868.18 622.95h160v17.58h-160z" fill="#fff" fill-opacity="0"/><path d="M882.97 623.84v.3c-1.08.2-1.3.3-1.6 1.42l-2.5 9.16c-.05.15-.07.3-.07.46 0 .53.27.66 1.5.8v.3h-5.2v-.3c1.34-.1 1.68-.54 1.93-1.47l1.22-4.43h-5.43l-1.26 4.65c-.03.13-.05.3-.05.42 0 .55.2.68 1.34.84v.3h-4.67v-.3c1.07-.12 1.3-.4 1.64-1.64l2.26-8.2c.13-.5.23-.93.23-1.2 0-.56-.28-.68-1.48-.8v-.3h5.16v.3c-1.14.08-1.65.45-1.9 1.36l-1.03 3.77h5.43l.87-3.12c.14-.5.27-.9.27-1.2 0-.46-.3-.73-1.37-.8v-.3h4.72M888 624.87c0 .53-.44.97-.93.97-.55 0-.92-.4-.92-1s.4-1.02.9-1.02.95.5.95 1.05m-.8 9.24l.25.22c-1.05 1.6-1.66 2.17-2.6 2.17-.64 0-.94-.35-.94-1.06 0-.38.14-1.04.43-2.1l.9-3.38c.1-.35.18-.7.18-.84 0-.38-.18-.44-1.2-.46v-.3c.74-.06 1.12-.12 3.04-.48l.08.06-1.8 6.53c-.1.33-.18.57-.18.84 0 .2.1.3.26.3.33 0 .78-.4 1.6-1.5M897.26 629.3h-.93c.17.35.17.66.17.98 0 1.6-1.75 3.13-3.53 3.13-.2 0-.4 0-.6-.05-.04-.02-.08-.02-.12-.02-.32 0-.7.38-.7.78 0 .35.53.6 1.37.8 1.83.45 2.7 1.3 2.7 2.43 0 1.66-1.46 2.88-4 2.88-1.94 0-3.18-.68-3.18-2.05 0-.97.36-1.5 2.23-2.6-.34-.22-.5-.5-.5-.75 0-.56.42-1.13 1.45-1.6-1.06-.4-1.5-1.07-1.5-2.06 0-1.94 1.9-3.26 3.83-3.26.72 0 1.35.17 1.86.53.16.13.26.17.32.17h1.14v.74m-2.27.35c0-1-.37-1.35-1.07-1.35-1.18 0-2.33 1.4-2.33 3.28 0 .9.42 1.43 1.15 1.43.64 0 1.16-.34 1.6-1.12.4-.65.64-1.43.64-2.23m-.52 8.35c0-.88-.7-1.4-2.72-2.04l-.65-.2c-.16 0-.96.64-1.23.98-.3.36-.38.67-.38 1.1 0 1.34.88 1.95 2.4 1.95 1.55 0 2.58-.83 2.58-1.8M906.67 634.03l.25.25c-1.16 1.66-1.8 2.17-2.78 2.17-.52 0-.84-.3-.84-.8 0-.23.13-.82.38-1.75l1.05-3.94c.07-.3.13-.56.13-.63 0-.3-.1-.48-.53-.48-.7 0-1.9 1.16-2.9 2.67-.76 1.16-1.06 1.83-1.83 4.76h-1.43l2.8-10.55c.14-.6.23-.92.23-1.18 0-.33-.43-.48-.78-.48h-.5v-.28c1.13-.15 1.87-.28 2.98-.53l.13.12-2.3 8.5c1.7-2.78 3.2-4.02 4.38-4.02.88 0 1.25.57 1.25 1.28 0 .47-.35 1.88-.92 3.67-.32 1-.63 2.18-.63 2.38 0 .2.14.36.3.36.3 0 .54-.23 1.57-1.53M914.37 623.84h4.6c2.8 0 4.14 1 4.14 2.82 0 1.03-.5 2.08-1.3 2.73-.86.7-2.2 1.07-3.9 1.07-.8 0-1.2-.04-1.7-.15l-1 3.68c-.15.5-.28.9-.28 1.2 0 .43.28.66 1.3.78v.3h-4.63v-.3c1.07-.16 1.24-.33 1.6-1.57l2.2-7.87c.24-.9.32-1.3.32-1.58 0-.52-.27-.67-1.35-.8v-.3m3.3 1.15l-1.3 4.67c.55.1.64.1 1 .1 1.17 0 1.83-.12 2.43-.46.83-.47 1.35-1.3 1.35-2.54 0-1.7-.92-2.35-2.48-2.35-.53 0-.88.17-1 .6M926.58 632.03l.3-.66c.36-.8 1-1.8 1.8-2.63.5-.52 1.06-.86 1.5-.86.53 0 .9.4.9.97s-.33 1.03-.9 1.03c-.35 0-.5-.2-.67-.5-.1-.18-.16-.26-.3-.26-.34 0-.87.63-1.56 1.8-.82 1.4-1.16 2.16-2.1 5.36h-1.46l1.54-5.56c.27-1 .3-1.16.3-1.56 0-.4-.33-.5-.7-.5-.17 0-.32.02-.6.06v-.32l2.95-.52.05.04M937.9 634.2l.24.23c-1.1 1.34-2.3 2.06-3.9 2.06-1.53 0-2.56-1.04-2.56-2.62 0-2.95 2.84-6 5.7-6 1 0 1.56.5 1.56 1.3 0 1.63-2 3.12-5.4 3.56-.2.38-.2.87-.2 1.16 0 1.05.7 1.73 1.77 1.73.85 0 1.44-.3 2.8-1.42m-3.9-2.72l-.34.84c1.64-.4 2.36-.74 3.07-1.4.6-.58.95-1.27.95-1.86 0-.46-.13-.74-.66-.74-1.1 0-2.4 1.47-3.03 3.16M946.52 627.86l-.38 2.67h-.3c-.2-1.58-.77-2.2-1.7-2.2-.67 0-1.12.37-1.12 1.07 0 .52.28 1.07 1.02 1.95.96 1.1 1.3 1.85 1.3 2.6 0 1.57-1.16 2.54-2.74 2.54-.33 0-.6-.03-1.05-.2-.36-.15-.63-.17-.84-.17-.2 0-.4.1-.54.4h-.3l.37-3.03h.3c.28 1.8.92 2.6 1.9 2.6.9 0 1.46-.54 1.46-1.48 0-.6-.33-1.25-1.07-2.2-.82-1-1.2-1.87-1.2-2.48 0-1.26.9-2.06 2.3-2.06.32 0 .6.06 1.07.2.36.1.53.12.68.12.3 0 .42-.07.57-.34h.27M953.95 627.86l-.38 2.67h-.3c-.2-1.58-.77-2.2-1.7-2.2-.67 0-1.13.37-1.13 1.07 0 .52.3 1.07 1.03 1.95.96 1.1 1.3 1.85 1.3 2.6 0 1.57-1.16 2.54-2.74 2.54-.33 0-.6-.03-1.05-.2-.36-.15-.63-.17-.84-.17-.2 0-.42.1-.55.4h-.32l.38-3.03h.3c.28 1.8.92 2.6 1.9 2.6.9 0 1.46-.54 1.46-1.48 0-.6-.32-1.25-1.07-2.2-.8-1-1.2-1.87-1.2-2.48 0-1.26.9-2.06 2.3-2.06.33 0 .6.06 1.08.2.36.1.53.12.68.12.3 0 .43-.07.58-.34h.27M963.17 634l.27.2c-1.24 1.87-1.74 2.25-2.63 2.25-.56 0-.9-.32-.9-.9 0-.43.24-1.7.85-3.76-2.25 3.68-3.2 4.7-4.55 4.7-.67 0-1-.3-1-1.02 0-.36.16-1.05.5-2.44l.67-2.64c.15-.63.27-1.13.27-1.28 0-.13-.1-.3-.2-.34-.2-.1-.24-.12-.97-.12v-.26c1.1-.14 1.78-.27 2.86-.52l.08.06-1.7 6.76c0 .06-.05.23-.05.3 0 .3.1.48.4.48.63 0 1.5-1 2.7-2.8.9-1.35 1.15-2.08 2.1-4.63h1.4l-1.5 5.7c-.1.36-.37 1.26-.37 1.48 0 .2.08.33.2.33.3 0 .62-.27 1.6-1.55M967.28 632.03l.3-.66c.37-.8 1.02-1.8 1.8-2.63.5-.52 1.07-.86 1.5-.86.54 0 .9.4.9.97s-.32 1.03-.9 1.03c-.34 0-.5-.2-.66-.5-.12-.18-.17-.26-.3-.26-.35 0-.88.63-1.57 1.8-.82 1.4-1.16 2.16-2.1 5.36h-1.46l1.53-5.56c.27-1 .3-1.16.3-1.56 0-.4-.34-.5-.72-.5-.14 0-.3.02-.58.06v-.32l2.95-.52.06.04M978.6 634.2l.23.23c-1.1 1.34-2.3 2.06-3.9 2.06-1.53 0-2.56-1.04-2.56-2.62 0-2.95 2.84-6 5.7-6 1 0 1.56.5 1.56 1.3 0 1.63-2 3.12-5.4 3.56-.2.38-.2.87-.2 1.16 0 1.05.7 1.73 1.77 1.73.84 0 1.43-.3 2.8-1.42m-3.93-2.72l-.32.84c1.64-.4 2.36-.74 3.07-1.4.6-.58.95-1.27.95-1.86 0-.46-.13-.74-.67-.74-1.08 0-2.38 1.47-3.03 3.16M994.16 623.58l-.76 3.8-.34-.05c0-1.94-.42-3.1-2.27-3.1-1.32 0-2.14.7-2.14 1.9 0 .93.15 1.24 1.88 2.97 1.74 1.75 2.16 2.57 2.16 3.8 0 2.18-1.66 3.72-3.85 3.72-.6 0-1.1-.13-1.98-.43-.52-.2-.7-.24-.9-.24-.38 0-.68.17-.82.6h-.34l.66-4.26.38.04c-.04.17-.04.3-.04.44 0 1.86 1.14 3.18 2.74 3.18 1.47 0 2.5-1 2.5-2.44 0-.82-.27-1.4-1.15-2.34l-.75-.8c-.26-.3-.5-.56-.74-.8-1.13-1.22-1.42-1.83-1.42-2.86 0-2 1.56-3.12 3.4-3.12.58 0 1.2.1 1.6.26.4.15.64.2.9.2.4 0 .58-.08.84-.48h.44M998.26 628.13l-.55 1.9c1.03-1.54 2.12-2.15 3.26-2.15 1.4 0 2.2.9 2.2 2.38 0 3.15-2.88 6.23-5.66 6.23-.44 0-.84-.1-1.32-.33-.32 1.33-.76 2.9-.76 3.16 0 .42.28.55 1.18.55v.3h-3.87v-.3c.82-.02 1.07-.3 1.3-1.2l2.2-8.23c.2-.76.3-1.25.3-1.35 0-.46-.54-.5-.84-.5h-.43l-.04-.3 2.97-.42c.06 0 .1.04.1.08l-.04.17m3.18 2.2c0-1.1-.33-1.63-1.18-1.63-1 0-2.14 1.03-2.57 2.17-.57 1.43-1.25 3.9-1.25 4.54 0 .42.38.73.9.73 1.02 0 1.94-.63 2.77-1.8.92-1.3 1.32-2.68 1.32-4M1012.7 630.55c0 1.45-.77 3.12-2.02 4.36-1.1 1.1-2.33 1.6-3.58 1.6-1.8 0-2.8-1-2.8-2.66 0-2.13 1.42-4.32 3.42-5.4.75-.4 1.5-.56 2.3-.56 1.53 0 2.68 1 2.68 2.67m-1.6-.48c0-1.16-.54-1.8-1.36-1.8-.83 0-1.67.6-2.43 1.74-.87 1.35-1.4 2.85-1.4 4.36 0 1.14.6 1.73 1.48 1.73.84 0 1.56-.56 2.3-1.6.88-1.2 1.42-2.98 1.42-4.43M1022.22 630.55c0 1.45-.76 3.12-2.02 4.36-1.1 1.1-2.32 1.6-3.58 1.6-1.8 0-2.8-1-2.8-2.66 0-2.13 1.43-4.32 3.43-5.4.74-.4 1.5-.56 2.3-.56 1.53 0 2.67 1 2.67 2.67m-1.6-.48c0-1.16-.53-1.8-1.35-1.8-.84 0-1.68.6-2.44 1.74-.88 1.35-1.4 2.85-1.4 4.36 0 1.14.58 1.73 1.48 1.73.84 0 1.57-.56 2.3-1.6.9-1.2 1.42-2.98 1.42-4.43M1028.16 623.37l-2.9 11.14c-.1.35-.16.68-.16.83 0 .23.13.34.32.34.3 0 .73-.3 1.28-1.08l.47-.68.27.2c-1.14 1.8-1.85 2.37-2.88 2.37-.6 0-.93-.37-.93-1.08 0-.15.02-.38.08-.57l2.62-9.98c.05-.2.05-.3.05-.36 0-.22-.32-.4-.93-.4h-.34v-.3c1.12-.15 1.83-.28 2.95-.53"/><path d="M779.6 510.08v-17.12c0-.12.1-.2.2-.2s.2-.1.2-.2v-1.24M779.6 510.06v.52" stroke="#333" fill="none"/><path d="M780 476.55l4.64 14.27h-9.28z" stroke="#333" fill="#333"/><path d="M676.56 742.08v27.88M676.56 742.12v-1.54" stroke="#333" stroke-width="3" fill="none"/><path d="M676.56 785.72l-4.64-14.26h9.28z" stroke="#333" stroke-width="3" fill="#333"/><path d="M766.93 644.4v25.56M766.93 644.44v-1.54" stroke="#333" stroke-width="3" fill="none"/><path d="M766.93 685.72l-4.64-14.26h9.26z" stroke="#333" stroke-width="3" fill="#333"/><path d="M748.6 690.58h41.54v13.3H748.6z" fill="#fff" fill-opacity="0"/><path d="M751.4 690.9h4.58c2.8 0 4.16 1 4.16 2.82 0 1.03-.52 2.08-1.3 2.73-.87.73-2.2 1.1-3.9 1.1-.8 0-1.23-.05-1.72-.16l-1 3.67c-.15.5-.28.9-.28 1.2 0 .44.3.67 1.32.78v.3h-4.66v-.3c1.1-.15 1.26-.32 1.6-1.56l2.22-7.9c.24-.9.32-1.3.32-1.6 0-.5-.27-.66-1.35-.8v-.3m3.3 1.17l-1.3 4.67c.54.1.64.1.98.1 1.18 0 1.85-.12 2.44-.46.84-.48 1.36-1.32 1.36-2.56 0-1.7-.92-2.35-2.48-2.35-.54 0-.88.16-1 .6M765.9 695.2l-.1.6h-1.6l-1.66 6.26-.04.26c0 .25.12.3.3.3.3 0 .6-.3 1.53-1.5l.25.14c-1.14 1.75-1.73 2.3-2.72 2.3-.52 0-.88-.22-.88-.7 0-.2.15-.8.3-1.4l1.5-5.66h-1.44l-.02-.1c0-.22.17-.4.63-.5.6-.12 1.85-1.06 2.54-2.1.06-.1.18-.16.25-.16.12 0 .18.06.18.16 0 0 0 .1-.02.13l-.53 1.96h1.53M774.84 697.6c0 1.46-.76 3.14-2.02 4.38-1.1 1.1-2.33 1.58-3.58 1.58-1.8 0-2.8-1-2.8-2.65 0-2.12 1.42-4.3 3.42-5.38.75-.4 1.5-.57 2.3-.57 1.54 0 2.68 1 2.68 2.66m-1.6-.46c0-1.17-.53-1.8-1.35-1.8-.85 0-1.7.6-2.45 1.74-.88 1.34-1.42 2.84-1.42 4.35 0 1.14.6 1.73 1.5 1.73.83 0 1.56-.55 2.3-1.58.88-1.2 1.4-3 1.4-4.44M790.12 690.9v.3c-1.1.2-1.3.3-1.6 1.42L786 701.8c-.04.14-.06.3-.06.45 0 .53.27.67 1.5.8v.3h-5.22v-.3c1.36-.1 1.7-.53 1.95-1.47l1.22-4.44h-5.45l-1.26 4.65c-.04.12-.06.28-.06.4 0 .56.2.7 1.33.85v.3h-4.67v-.3c1.07-.1 1.3-.4 1.64-1.64l2.25-8.2c.12-.5.22-.92.22-1.2 0-.56-.27-.68-1.47-.8v-.3h5.17v.3c-1.15.08-1.66.45-1.9 1.36l-1.04 3.78h5.44l.87-3.13c.13-.5.26-.9.26-1.2 0-.45-.3-.72-1.37-.8v-.3h4.72"/><path d="M1720 268c0-4.42 3.58-8 8-8h95.83c4.42 0 8 3.58 8 8v64c0 4.42-3.58 8-8 8H1728c-4.42 0-8-3.58-8-8z" stroke="#333" fill="#3aa6dd"/><use xlink:href="#H" transform="matrix(1,0,0,1,1725,265) translate(21.5 27.799999999999997)"/><use xlink:href="#p" transform="matrix(1,0,0,1,1725,265) translate(23.549999999999997 49.4)"/><path d="M60 195.4c0-4.43 3.58-8 8-8h51.24c4.42 0 8 3.57 8 8v21.84c0 4.42-3.58 8-8 8H68c-4.42 0-8-3.58-8-8z" stroke="#333" fill="#3aa6dd"/><path d="M60 319.1c0-4.42 3.58-8 8-8h51.24c4.42 0 8 3.58 8 8v21.86c0 4.42-3.58 8-8 8H68c-4.42 0-8-3.58-8-8z" stroke="#333" fill="#7ab648"/><path d="M60 257.24c0-4.42 3.58-8 8-8h51.24c4.42 0 8 3.58 8 8v21.86c0 4.42-3.58 8-8 8H68c-4.42 0-8-3.58-8-8z" stroke="#333" fill="#ef8d22"/><path d="M60 380.96c0-4.42 3.58-8 8-8h51.24c4.42 0 8 3.58 8 8v21.86c0 4.4-3.58 8-8 8H68c-4.42 0-8-3.6-8-8z" stroke="#333" fill="#f9d2de"/><path d="M120 188c0-4.42 3.58-8 8-8h198.27c4.4 0 8 3.58 8 8v36.63c0 4.42-3.6 8-8 8H128c-4.42 0-8-3.58-8-8z" stroke="#000" stroke-opacity="0" fill="#fff" fill-opacity="0"/><use xlink:href="#I" transform="matrix(1,0,0,1,124.99999999999966,185) translate(16.90555555555555 15.188888888888886)"/><use xlink:href="#J" transform="matrix(1,0,0,1,124.99999999999966,185) translate(30.491975308641972 15.188888888888886)"/><use xlink:href="#K" transform="matrix(1,0,0,1,124.99999999999966,185) translate(71.6895061728395 15.188888888888886)"/><use xlink:href="#L" transform="matrix(1,0,0,1,124.99999999999966,185) translate(150.44691358024693 15.188888888888886)"/><use xlink:href="#M" transform="matrix(1,0,0,1,124.99999999999966,185) translate(42.54444444444444 34.12222222222222)"/><use xlink:href="#N" transform="matrix(1,0,0,1,124.99999999999966,185) translate(114.37716049382716 34.12222222222222)"/><path d="M120 246.63c0-4.42 3.58-8 8-8h198.27c4.4 0 8 3.58 8 8v39.94c0 4.42-3.6 8-8 8H128c-4.42 0-8-3.58-8-8z" stroke="#000" stroke-opacity="0" fill="#fff" fill-opacity="0"/><g><use xlink:href="#I" transform="matrix(1,0,0,1,124.99999999999932,243.62813228098327) translate(16.90555555555555 16.688888888888886)"/><use xlink:href="#J" transform="matrix(1,0,0,1,124.99999999999932,243.62813228098327) translate(30.491975308641972 16.688888888888886)"/><use xlink:href="#K" transform="matrix(1,0,0,1,124.99999999999932,243.62813228098327) translate(71.6895061728395 16.688888888888886)"/><use xlink:href="#L" transform="matrix(1,0,0,1,124.99999999999932,243.62813228098327) translate(150.44691358024693 16.688888888888886)"/><use xlink:href="#O" transform="matrix(1,0,0,1,124.99999999999932,243.62813228098327) translate(27.42407407407407 35.62222222222222)"/><use xlink:href="#P" transform="matrix(1,0,0,1,124.99999999999932,243.62813228098327) translate(83.39135802469136 35.62222222222222)"/></g><path d="M120 312.06c0-4.4 3.58-8 8-8h198.27c4.4 0 8 3.6 8 8V348c0 4.4-3.6 8-8 8H128c-4.42 0-8-3.6-8-8z" stroke="#000" stroke-opacity="0" fill="#fff" fill-opacity="0"/><g><use xlink:href="#I" transform="matrix(1,0,0,1,124.99999999999932,309.0639061765755) translate(16.90555555555555 14.688888888888886)"/><use xlink:href="#J" transform="matrix(1,0,0,1,124.99999999999932,309.0639061765755) translate(30.491975308641972 14.688888888888886)"/><use xlink:href="#K" transform="matrix(1,0,0,1,124.99999999999932,309.0639061765755) translate(71.6895061728395 14.688888888888886)"/><use xlink:href="#L" transform="matrix(1,0,0,1,124.99999999999932,309.0639061765755) translate(150.44691358024693 14.688888888888886)"/><use xlink:href="#Q" transform="matrix(1,0,0,1,124.99999999999932,309.0639061765755) translate(43.420987654320996 33.62222222222222)"/><use xlink:href="#R" transform="matrix(1,0,0,1,124.99999999999932,309.0639061765755) translate(101.18518518518519 33.62222222222222)"/></g><path d="M120 366.5c0-4.42 3.58-8 8-8h198.27c4.4 0 8 3.58 8 8v56.18c0 4.42-3.6 8-8 8H128c-4.42 0-8-3.58-8-8z" stroke="#000" stroke-opacity="0" fill="#fff" fill-opacity="0"/><g><use xlink:href="#I" transform="matrix(1,0,0,1,124.99999999999966,363.5005542405861) translate(16.90555555555555 25.188888888888886)"/><use xlink:href="#J" transform="matrix(1,0,0,1,124.99999999999966,363.5005542405861) translate(30.491975308641972 25.188888888888886)"/><use xlink:href="#K" transform="matrix(1,0,0,1,124.99999999999966,363.5005542405861) translate(71.6895061728395 25.188888888888886)"/><use xlink:href="#L" transform="matrix(1,0,0,1,124.99999999999966,363.5005542405861) translate(150.44691358024693 25.188888888888886)"/><use xlink:href="#S" transform="matrix(1,0,0,1,124.99999999999966,363.5005542405861) translate(36.89074074074074 44.12222222222222)"/><use xlink:href="#R" transform="matrix(1,0,0,1,124.99999999999966,363.5005542405861) translate(107.71543209876543 44.12222222222222)"/></g><path d="M660 790.58h41.67v16.73H660z" fill="#fff" fill-opacity="0"/><path d="M663.83 792.44H669c3.24 0 4.42 1.64 4.42 3.05 0 1.86-1.54 3.8-5.43 3.8-.54 0-.96-.03-1.42-.1-.1 0-.15-.03-.23-.04l-1.07 4.25c-.04.16-.05.3-.05.45 0 .45.34.74 1.46.74h.6l-.07.3h-6.5l.07-.3h.33c1.46 0 1.84-.54 2.02-1.2l2.38-9.47c.04-.15.08-.32.08-.48 0-.4-.32-.7-1.48-.7h-.36m4.08.46l-1.3 5.23c.3.08.76.15 1.15.15 1.93 0 3.46-1.33 3.46-3.28 0-1.14-.58-2.15-2.4-2.15-.3 0-.6.02-.92.06M678.82 796.54l-.2.73h-1.32l-1.5 6.1-.03.2c0 .12.06.24.3.24 0 0 .44-.03 1.15-.98l.25.2c-.46.6-1.4 2.05-2.54 2.05-.6 0-.74-.48-.74-1 0-.24.03-.5.08-.7l1.55-6.1h-1.47l.1-.56c1.42-.25 2.6-.96 3.37-2.62h.25l-.6 2.46h1.34M687.77 799.42c0 2.65-2.1 5.68-5.02 5.68-1.93 0-2.57-1.7-2.57-3.1 0-2.44 1.96-5.5 4.78-5.5 1.53 0 2.8.86 2.8 2.92m-1.54-.6c0-.7-.27-1.76-1.28-1.76-1.56 0-3.22 2.84-3.22 5.43 0 .62.06 2.03 1.13 2.03 2.02 0 3.37-4.25 3.37-5.7M700.9 801.27l-1.18 3.63h-10.85l.08-.3h.32c1.43 0 1.9-.54 2.04-1.2l2.26-9.1c.08-.3.14-.68.14-.85 0-.36-.27-.7-1.45-.7h-.35l.08-.3h6.24l-.08.3h-.34c-1.43 0-1.83.5-2 1.2l-2.33 9.17c-.08.3-.1.55-.1.6 0 .4.54.45.76.45h2.33c1.95 0 2.92-.42 3.8-2.2.13-.2.22-.43.32-.7h.3"/><path d="M779.27 509.58v-67c0-6.63 5.37-12 12-12h247.27c6.63 0 12 5.37 12 12v9M779.27 509.55v1.03" stroke="#333" stroke-width="2" fill="none"/><path d="M1050.54 466.84l-4.64-14.26h9.27z" stroke="#333" stroke-width="2" fill="#333"/><path d="M780.08 509.58v-107c0-6.63 5.37-12 12-12h604.3c6.63 0 12 5.37 12 12v49M780.08 509.55v1.03" stroke="#333" stroke-width="2" fill="none"/><path d="M1408.4 466.84l-4.65-14.26h9.27z" stroke="#333" stroke-width="2" fill="#333"/><path d="M780.08 491.7V369.08M780.08 492.7" stroke="#333" stroke-width="2" fill="none"/><path d="M780.08 353.8l4.64 14.28h-9.27z" stroke="#333" stroke-width="2" fill="#333"/><path d="M40 188c0-4.42 3.58-8 8-8h278.27c4.4 0 8 3.58 8 8v219.55c0 4.42-3.6 8-8 8H48c-4.42 0-8-3.58-8-8z" fill="#fff" fill-opacity="0"/><path d="M68.6 180h20.62m10.3 0h20.62m10.3 0h20.62m10.3 0H182m10.3 0h20.62m10.3 0h20.62m10.3 0h20.6m10.32 0h20.6m10.32 0h10.3l3.12.63 2.54 1.7 1.72 2.56.63 3.1v10.45m0 10.46v20.92m0 10.45v20.9m0 10.47v20.9m0 10.46v20.9m0 10.47v20.9m0 10.46v20.9m0 10.46v10.45l-.63 3.1-1.72 2.55-2.54 1.72-3.1.63h-10.32m-10.3 0h-20.62m-10.3 0H254.1m-10.3 0H223.2m-10.3 0h-20.6m-10.32 0h-20.6m-10.32 0h-20.6m-10.32 0h-20.6m-10.32 0h-20.6m-10.3 0H48l-3.1-.63-2.56-1.72-1.7-2.54-.64-3.1v-10.47m0-10.46v-20.9m0-10.47v-20.9m0-10.46V303m0-10.45v-20.9m0-10.47v-20.9m0-10.46v-20.9m0-10.47V188l.63-3.1 1.7-2.56 2.56-1.7L48 180h10.3" stroke="#5e5e5e" stroke-width="2" fill="none"/><defs><path fill="#333" d="M33 0v-248h34V0H33" id="T"/><path fill="#333" d="M117-194c89-4 53 116 60 194h-32v-121c0-31-8-49-39-48C34-167 62-67 57 0H25l-1-190h30c1 10-1 24 2 32 11-22 29-35 61-36" id="U"/><path fill="#333" d="M24 0v-261h32V0H24" id="V"/><path fill="#333" d="M100-194c63 0 86 42 84 106H49c0 40 14 67 53 68 26 1 43-12 49-29l28 8c-11 28-37 45-77 45C44 4 14-33 15-96c1-61 26-98 85-98zm52 81c6-60-76-77-97-28-3 7-6 17-6 28h103" id="W"/><path fill="#333" d="M59-47c-2 24 18 29 38 22v24C64 9 27 4 27-40v-127H5v-23h24l9-43h21v43h35v23H59v120" id="X"/><g id="a"><use transform="matrix(0.05,0,0,0.05,0,0)" xlink:href="#T"/><use transform="matrix(0.05,0,0,0.05,5,0)" xlink:href="#U"/><use transform="matrix(0.05,0,0,0.05,15,0)" xlink:href="#V"/><use transform="matrix(0.05,0,0,0.05,18.95,0)" xlink:href="#W"/><use transform="matrix(0.05,0,0,0.05,28.950000000000003,0)" xlink:href="#X"/></g><path fill="#333" d="M63-220v92h138v28H63V0H30v-248h175v28H63" id="Y"/><path fill="#333" d="M141-36C126-15 110 5 73 4 37 3 15-17 15-53c-1-64 63-63 125-63 3-35-9-54-41-54-24 1-41 7-42 31l-33-3c5-37 33-52 76-52 45 0 72 20 72 64v82c-1 20 7 32 28 27v20c-31 9-61-2-59-35zM48-53c0 20 12 33 32 33 41-3 63-29 60-74-43 2-92-5-92 41" id="Z"/><g id="b"><use transform="matrix(0.05,0,0,0.05,0,0)" xlink:href="#Y"/><use transform="matrix(0.05,0,0,0.05,10.950000000000001,0)" xlink:href="#Z"/><use transform="matrix(0.05,0,0,0.05,20.950000000000003,0)" xlink:href="#U"/></g><path fill="#333" d="M30 0v-248h33v221h125V0H30" id="aa"/><path fill="#333" d="M100-194c62-1 85 37 85 99 1 63-27 99-86 99S16-35 15-95c0-66 28-99 85-99zM99-20c44 1 53-31 53-75 0-43-8-75-51-75s-53 32-53 75 10 74 51 75" id="ab"/><path fill="#333" d="M206 0h-36l-40-164L89 0H53L-1-190h32L70-26l43-164h34l41 164 42-164h31" id="ac"/><g id="c"><use transform="matrix(0.05,0,0,0.05,0,0)" xlink:href="#aa"/><use transform="matrix(0.05,0,0,0.05,10,0)" xlink:href="#ab"/><use transform="matrix(0.05,0,0,0.05,20,0)" xlink:href="#ac"/></g><path fill="#333" d="M30-248c87 1 191-15 191 75 0 78-77 80-158 76V0H30v-248zm33 125c57 0 124 11 124-50 0-59-68-47-124-48v98" id="ad"/><path fill="#333" d="M114-163C36-179 61-72 57 0H25l-1-190h30c1 12-1 29 2 39 6-27 23-49 58-41v29" id="ae"/><path fill="#333" d="M135-143c-3-34-86-38-87 0 15 53 115 12 119 90S17 21 10-45l28-5c4 36 97 45 98 0-10-56-113-15-118-90-4-57 82-63 122-42 12 7 21 19 24 35" id="af"/><path fill="#333" d="M84 4C-5 8 30-112 23-190h32v120c0 31 7 50 39 49 72-2 45-101 50-169h31l1 190h-30c-1-10 1-25-2-33-11 22-28 36-60 37" id="ag"/><g id="d"><use transform="matrix(0.05,0,0,0.05,0,0)" xlink:href="#ad"/><use transform="matrix(0.05,0,0,0.05,12,0)" xlink:href="#ae"/><use transform="matrix(0.05,0,0,0.05,17.95,0)" xlink:href="#W"/><use transform="matrix(0.05,0,0,0.05,27.950000000000003,0)" xlink:href="#af"/><use transform="matrix(0.05,0,0,0.05,36.95,0)" xlink:href="#af"/><use transform="matrix(0.05,0,0,0.05,45.95,0)" xlink:href="#ag"/><use transform="matrix(0.05,0,0,0.05,55.95,0)" xlink:href="#ae"/><use transform="matrix(0.05,0,0,0.05,61.900000000000006,0)" xlink:href="#W"/></g><path fill="#333" d="M212-179c-10-28-35-45-73-45-59 0-87 40-87 99 0 60 29 101 89 101 43 0 62-24 78-52l27 14C228-24 195 4 139 4 59 4 22-46 18-125c-6-104 99-153 187-111 19 9 31 26 39 46" id="ah"/><path fill="#333" d="M210-169c-67 3-38 105-44 169h-31v-121c0-29-5-50-35-48C34-165 62-65 56 0H25l-1-190h30c1 10-1 24 2 32 10-44 99-50 107 0 11-21 27-35 58-36 85-2 47 119 55 194h-31v-121c0-29-5-49-35-48" id="ai"/><path fill="#333" d="M115-194c55 1 70 41 70 98S169 2 115 4C84 4 66-9 55-30l1 105H24l-1-265h31l2 30c10-21 28-34 59-34zm-8 174c40 0 45-34 45-75s-6-73-45-74c-42 0-51 32-51 76 0 43 10 73 51 73" id="aj"/><g id="e"><use transform="matrix(0.05,0,0,0.05,0,0)" xlink:href="#ah"/><use transform="matrix(0.05,0,0,0.05,12.950000000000001,0)" xlink:href="#ab"/><use transform="matrix(0.05,0,0,0.05,22.950000000000003,0)" xlink:href="#ai"/><use transform="matrix(0.05,0,0,0.05,37.900000000000006,0)" xlink:href="#aj"/><use transform="matrix(0.05,0,0,0.05,47.900000000000006,0)" xlink:href="#ae"/><use transform="matrix(0.05,0,0,0.05,53.85,0)" xlink:href="#W"/><use transform="matrix(0.05,0,0,0.05,63.85,0)" xlink:href="#af"/><use transform="matrix(0.05,0,0,0.05,72.85000000000001,0)" xlink:href="#af"/><use transform="matrix(0.05,0,0,0.05,81.85000000000001,0)" xlink:href="#ab"/><use transform="matrix(0.05,0,0,0.05,91.85000000000001,0)" xlink:href="#ae"/></g><path fill="#333" d="M197 0v-115H63V0H30v-248h33v105h134v-105h34V0h-34" id="ak"/><path fill="#333" d="M24-231v-30h32v30H24zM24 0v-190h32V0H24" id="al"/><path fill="#333" d="M177-190C167-65 218 103 67 71c-23-6-38-20-44-43l32-5c15 47 100 32 89-28v-30C133-14 115 1 83 1 29 1 15-40 15-95c0-56 16-97 71-98 29-1 48 16 59 35 1-10 0-23 2-32h30zM94-22c36 0 50-32 50-73 0-42-14-75-50-75-39 0-46 34-46 75s6 73 46 73" id="am"/><path fill="#333" d="M106-169C34-169 62-67 57 0H25v-261h32l-1 103c12-21 28-36 61-36 89 0 53 116 60 194h-32v-121c2-32-8-49-39-48" id="an"/><g id="f"><use transform="matrix(0.05,0,0,0.05,0,0)" xlink:href="#ak"/><use transform="matrix(0.05,0,0,0.05,12.950000000000001,0)" xlink:href="#al"/><use transform="matrix(0.05,0,0,0.05,16.900000000000002,0)" xlink:href="#am"/><use transform="matrix(0.05,0,0,0.05,26.900000000000002,0)" xlink:href="#an"/></g><g id="g"><use transform="matrix(0.05,0,0,0.05,0,0)" xlink:href="#ah"/><use transform="matrix(0.05,0,0,0.05,12.950000000000001,0)" xlink:href="#ab"/><use transform="matrix(0.05,0,0,0.05,22.950000000000003,0)" xlink:href="#ab"/><use transform="matrix(0.05,0,0,0.05,32.95,0)" xlink:href="#V"/><use transform="matrix(0.05,0,0,0.05,36.900000000000006,0)" xlink:href="#Z"/><use transform="matrix(0.05,0,0,0.05,46.900000000000006,0)" xlink:href="#U"/><use transform="matrix(0.05,0,0,0.05,56.900000000000006,0)" xlink:href="#X"/></g><path fill="#333" d="M240 0l2-218c-23 76-54 145-80 218h-23L58-218 59 0H30v-248h44l77 211c21-75 51-140 76-211h43V0h-30" id="ao"/><path fill="#333" d="M141 0L90-78 38 0H4l68-98-65-92h35l48 74 47-74h35l-64 92 68 98h-35" id="ap"/><g id="h"><use transform="matrix(0.05,0,0,0.05,0,0)" xlink:href="#ao"/><use transform="matrix(0.05,0,0,0.05,14.950000000000001,0)" xlink:href="#al"/><use transform="matrix(0.05,0,0,0.05,18.900000000000002,0)" xlink:href="#ap"/><use transform="matrix(0.05,0,0,0.05,27.900000000000002,0)" xlink:href="#W"/><use transform="matrix(0.05,0,0,0.05,37.900000000000006,0)" xlink:href="#ae"/></g><path fill="#333" d="M101-251c82-7 93 87 43 132L82-64C71-53 59-42 53-27h129V0H18c2-99 128-94 128-182 0-28-16-43-45-43s-46 15-49 41l-32-3c6-41 34-60 81-64" id="aq"/><use transform="matrix(0.05,0,0,0.05,0,0)" xlink:href="#aq" id="i"/><path fill="#333" d="M127-220V0H93v-220H8v-28h204v28h-85" id="ar"/><path fill="#333" d="M115-194c53 0 69 39 70 98 0 66-23 100-70 100C84 3 66-7 56-30L54 0H23l1-261h32v101c10-23 28-34 59-34zm-8 174c40 0 45-34 45-75 0-40-5-75-45-74-42 0-51 32-51 76 0 43 10 73 51 73" id="as"/><g id="j"><use transform="matrix(0.05,0,0,0.05,0,0)" xlink:href="#ar"/><use transform="matrix(0.05,0,0,0.05,10.3,0)" xlink:href="#ag"/><use transform="matrix(0.05,0,0,0.05,20.3,0)" xlink:href="#ae"/><use transform="matrix(0.05,0,0,0.05,26.25,0)" xlink:href="#as"/><use transform="matrix(0.05,0,0,0.05,36.25,0)" xlink:href="#al"/><use transform="matrix(0.05,0,0,0.05,40.2,0)" xlink:href="#U"/><use transform="matrix(0.05,0,0,0.05,50.2,0)" xlink:href="#W"/></g><path fill="#333" d="M27 0v-27h64v-190l-56 39v-29l58-41h29v221h61V0H27" id="at"/><use transform="matrix(0.05,0,0,0.05,0,0)" xlink:href="#at" id="k"/><g id="l"><use transform="matrix(0.05,0,0,0.05,0,0)" xlink:href="#ao"/><use transform="matrix(0.05,0,0,0.05,14.950000000000001,0)" xlink:href="#Z"/><use transform="matrix(0.05,0,0,0.05,24.950000000000003,0)" xlink:href="#al"/><use transform="matrix(0.05,0,0,0.05,28.900000000000002,0)" xlink:href="#U"/></g><path fill="#333" d="M160-131c35 5 61 23 61 61C221 17 115-2 30 0v-248c76 3 177-17 177 60 0 33-19 50-47 57zm-97-11c50-1 110 9 110-42 0-47-63-36-110-37v79zm0 115c55-2 124 14 124-45 0-56-70-42-124-44v89" id="au"/><g id="m"><use transform="matrix(0.05,0,0,0.05,0,0)" xlink:href="#au"/><use transform="matrix(0.05,0,0,0.05,12,0)" xlink:href="#ag"/><use transform="matrix(0.05,0,0,0.05,22,0)" xlink:href="#ae"/><use transform="matrix(0.05,0,0,0.05,27.950000000000003,0)" xlink:href="#U"/><use transform="matrix(0.05,0,0,0.05,37.95,0)" xlink:href="#W"/><use transform="matrix(0.05,0,0,0.05,47.95,0)" xlink:href="#ae"/></g><g id="n"><use transform="matrix(0.05,0,0,0.05,0,0)" xlink:href="#ah"/><use transform="matrix(0.05,0,0,0.05,12.950000000000001,0)" xlink:href="#ab"/><use transform="matrix(0.05,0,0,0.05,22.950000000000003,0)" xlink:href="#ae"/><use transform="matrix(0.05,0,0,0.05,28.900000000000002,0)" xlink:href="#W"/></g><g id="o"><use transform="matrix(0.05,0,0,0.05,0,0)" xlink:href="#Y"/><use transform="matrix(0.05,0,0,0.05,10.950000000000001,0)" xlink:href="#V"/><use transform="matrix(0.05,0,0,0.05,14.9,0)" xlink:href="#ab"/><use transform="matrix(0.05,0,0,0.05,24.900000000000002,0)" xlink:href="#ac"/></g><path fill="#333" d="M190 0L58-211 59 0H30v-248h39L202-35l-2-213h31V0h-41" id="av"/><path fill="#333" d="M9 0v-24l116-142H16v-24h144v24L44-24h123V0H9" id="aw"/><g id="p"><use transform="matrix(0.05,0,0,0.05,0,0)" xlink:href="#av"/><use transform="matrix(0.05,0,0,0.05,12.950000000000001,0)" xlink:href="#ab"/><use transform="matrix(0.05,0,0,0.05,22.950000000000003,0)" xlink:href="#aw"/><use transform="matrix(0.05,0,0,0.05,31.950000000000003,0)" xlink:href="#aw"/><use transform="matrix(0.05,0,0,0.05,40.95,0)" xlink:href="#V"/><use transform="matrix(0.05,0,0,0.05,44.900000000000006,0)" xlink:href="#W"/></g><use transform="matrix(0.030864197530864196,0,0,0.030864197530864196,0,0)" xlink:href="#at" id="q"/><use transform="matrix(0.030864197530864196,0,0,0.030864197530864196,0,0)" xlink:href="#aq" id="r"/><path fill="#333" d="M33 0v-38h34V0H33" id="ax"/><path fill="#333" d="M54-142c48-35 137-8 131 61C196 18 31 33 14-55l32-4c7 23 22 37 52 37 35-1 51-22 54-58 4-55-73-65-99-34H22l8-134h141v27H59" id="ay"/><g id="s"><use transform="matrix(0.030864197530864196,0,0,0.030864197530864196,0,0)" xlink:href="#aq"/><use transform="matrix(0.030864197530864196,0,0,0.030864197530864196,6.172839506172839,0)" xlink:href="#ax"/><use transform="matrix(0.030864197530864196,0,0,0.030864197530864196,9.25925925925926,0)" xlink:href="#ay"/></g><path fill="#333" d="M126-127c33 6 58 20 58 59 0 88-139 92-164 29-3-8-5-16-6-25l32-3c6 27 21 44 54 44 32 0 52-15 52-46 0-38-36-46-79-43v-28c39 1 72-4 72-42 0-27-17-43-46-43-28 0-47 15-49 41l-32-3c6-42 35-63 81-64 48-1 79 21 79 65 0 36-21 52-52 59" id="az"/><g id="t"><use transform="matrix(0.030864197530864196,0,0,0.030864197530864196,0,0)" xlink:href="#at"/><use transform="matrix(0.030864197530864196,0,0,0.030864197530864196,6.172839506172839,0)" xlink:href="#az"/></g><use transform="matrix(0.030864197530864196,0,0,0.030864197530864196,0,0)" xlink:href="#az" id="u"/><g id="w"><use transform="matrix(0.030864197530864196,0,0,0.030864197530864196,0,0)" xlink:href="#az"/><use transform="matrix(0.030864197530864196,0,0,0.030864197530864196,6.172839506172839,0)" xlink:href="#ax"/><use transform="matrix(0.030864197530864196,0,0,0.030864197530864196,9.25925925925926,0)" xlink:href="#at"/></g><path fill="#333" d="M155-56V0h-30v-56H8v-25l114-167h33v167h35v25h-35zm-30-156c-27 46-58 90-88 131h88v-131" id="aA"/><use transform="matrix(0.030864197530864196,0,0,0.030864197530864196,0,0)" xlink:href="#aA" id="x"/><g id="y"><use transform="matrix(0.030864197530864196,0,0,0.030864197530864196,0,0)" xlink:href="#aA"/><use transform="matrix(0.030864197530864196,0,0,0.030864197530864196,6.172839506172839,0)" xlink:href="#ax"/><use transform="matrix(0.030864197530864196,0,0,0.030864197530864196,9.25925925925926,0)" xlink:href="#at"/></g><g id="z"><use transform="matrix(0.030864197530864196,0,0,0.030864197530864196,0,0)" xlink:href="#aA"/><use transform="matrix(0.030864197530864196,0,0,0.030864197530864196,6.172839506172839,0)" xlink:href="#ax"/><use transform="matrix(0.030864197530864196,0,0,0.030864197530864196,9.25925925925926,0)" xlink:href="#aA"/></g><g id="A"><use transform="matrix(0.030864197530864196,0,0,0.030864197530864196,0,0)" xlink:href="#aA"/><use transform="matrix(0.030864197530864196,0,0,0.030864197530864196,6.172839506172839,0)" xlink:href="#ax"/><use transform="matrix(0.030864197530864196,0,0,0.030864197530864196,9.25925925925926,0)" xlink:href="#ay"/></g><use transform="matrix(0.030864197530864196,0,0,0.030864197530864196,0,0)" xlink:href="#ay" id="B"/><path fill="#333" d="M99-251c64 0 84 50 84 122C183-37 130 33 47-8c-14-7-20-23-25-40l30-5c6 39 69 39 84 7 9-19 16-44 16-74-10 22-31 35-62 35-49 0-73-33-73-83 0-54 28-83 82-83zm-1 141c31-1 51-18 51-49 0-36-14-67-51-67-34 0-49 23-49 58 0 34 15 58 49 58" id="aB"/><g id="C"><use transform="matrix(0.030864197530864196,0,0,0.030864197530864196,0,0)" xlink:href="#at"/><use transform="matrix(0.030864197530864196,0,0,0.030864197530864196,6.172839506172839,0)" xlink:href="#aB"/></g><path fill="#333" d="M64 0c3-98 48-159 88-221H18v-27h164v26C143-157 98-101 97 0H64" id="aC"/><use transform="matrix(0.030864197530864196,0,0,0.030864197530864196,0,0)" xlink:href="#aC" id="D"/><path fill="#333" d="M134-131c28 9 52 24 51 62-1 50-34 73-85 73S17-19 16-69c0-36 21-54 49-61-75-25-45-126 34-121 46 3 78 18 79 63 0 33-17 51-44 57zm-34-11c31 1 46-15 46-44 0-28-17-43-47-42-29 0-46 13-45 42 1 28 16 44 46 44zm1 122c35 0 51-18 51-52 0-30-18-46-53-46-33 0-51 17-51 47 0 34 19 51 53 51" id="aD"/><use transform="matrix(0.030864197530864196,0,0,0.030864197530864196,0,0)" xlink:href="#aD" id="E"/><use transform="matrix(0.030864197530864196,0,0,0.030864197530864196,0,0)" xlink:href="#aB" id="F"/><path fill="#333" d="M101-251c68 0 85 55 85 127S166 4 100 4C33 4 14-52 14-124c0-73 17-127 87-127zm-1 229c47 0 54-49 54-102s-4-102-53-102c-51 0-55 48-55 102 0 53 5 102 54 102" id="aE"/><use transform="matrix(0.030864197530864196,0,0,0.030864197530864196,0,0)" xlink:href="#aE" id="G"/><path fill="#333" d="M179-190L93 31C79 59 56 82 12 73V49c39 6 53-20 64-50L1-190h34L92-34l54-156h33" id="aF"/><g id="H"><use transform="matrix(0.05,0,0,0.05,0,0)" xlink:href="#au"/><use transform="matrix(0.05,0,0,0.05,12,0)" xlink:href="#aF"/><use transform="matrix(0.05,0,0,0.05,21,0)" xlink:href="#aj"/><use transform="matrix(0.05,0,0,0.05,31,0)" xlink:href="#Z"/><use transform="matrix(0.05,0,0,0.05,41,0)" xlink:href="#af"/><use transform="matrix(0.05,0,0,0.05,50,0)" xlink:href="#af"/></g><path fill="#333" d="M18-150v-26h174v26H18zm0 90v-26h174v26H18" id="aG"/><use transform="matrix(0.043827160493827164,0,0,0.043827160493827164,0,0)" xlink:href="#aG" id="I"/><path fill="#333" d="M185-189c-5-48-123-54-124 2 14 75 158 14 163 119 3 78-121 87-175 55-17-10-28-26-33-46l33-7c5 56 141 63 141-1 0-78-155-14-162-118-5-82 145-84 179-34 5 7 8 16 11 25" id="aH"/><g id="J"><use transform="matrix(0.043827160493827164,0,0,0.043827160493827164,0,0)" xlink:href="#aH"/><use transform="matrix(0.043827160493827164,0,0,0.043827160493827164,10.518518518518519,0)" xlink:href="#X"/><use transform="matrix(0.043827160493827164,0,0,0.043827160493827164,14.901234567901232,0)" xlink:href="#Z"/><use transform="matrix(0.043827160493827164,0,0,0.043827160493827164,23.666666666666664,0)" xlink:href="#X"/><use transform="matrix(0.043827160493827164,0,0,0.043827160493827164,28.04938271604938,0)" xlink:href="#W"/></g><path fill="#333" d="M96-169c-40 0-48 33-48 73s9 75 48 75c24 0 41-14 43-38l32 2c-6 37-31 61-74 61-59 0-76-41-82-99-10-93 101-131 147-64 4 7 5 14 7 22l-32 3c-4-21-16-35-41-35" id="aI"/><path fill="#333" d="M85-194c31 0 48 13 60 33l-1-100h32l1 261h-30c-2-10 0-23-3-31C134-8 116 4 85 4 32 4 16-35 15-94c0-66 23-100 70-100zm9 24c-40 0-46 34-46 75 0 40 6 74 45 74 42 0 51-32 51-76 0-42-9-74-50-73" id="aJ"/><g id="K"><use transform="matrix(0.043827160493827164,0,0,0.043827160493827164,0,0)" xlink:href="#ah"/><use transform="matrix(0.043827160493827164,0,0,0.043827160493827164,11.351234567901235,0)" xlink:href="#Z"/><use transform="matrix(0.043827160493827164,0,0,0.043827160493827164,20.116666666666667,0)" xlink:href="#V"/><use transform="matrix(0.043827160493827164,0,0,0.043827160493827164,23.579012345679008,0)" xlink:href="#aI"/><use transform="matrix(0.043827160493827164,0,0,0.043827160493827164,31.467901234567897,0)" xlink:href="#ag"/><use transform="matrix(0.043827160493827164,0,0,0.043827160493827164,40.233333333333334,0)" xlink:href="#V"/><use transform="matrix(0.043827160493827164,0,0,0.043827160493827164,43.69567901234568,0)" xlink:href="#Z"/><use transform="matrix(0.043827160493827164,0,0,0.043827160493827164,52.4611111111111,0)" xlink:href="#X"/><use transform="matrix(0.043827160493827164,0,0,0.043827160493827164,56.843827160493824,0)" xlink:href="#W"/><use transform="matrix(0.043827160493827164,0,0,0.043827160493827164,65.60925925925926,0)" xlink:href="#aJ"/></g><g id="L"><use transform="matrix(0.043827160493827164,0,0,0.043827160493827164,0,0)" xlink:href="#ag"/><use transform="matrix(0.043827160493827164,0,0,0.043827160493827164,8.765432098765432,0)" xlink:href="#af"/><use transform="matrix(0.043827160493827164,0,0,0.043827160493827164,16.654320987654323,0)" xlink:href="#al"/><use transform="matrix(0.043827160493827164,0,0,0.043827160493827164,20.116666666666667,0)" xlink:href="#U"/><use transform="matrix(0.043827160493827164,0,0,0.043827160493827164,28.882098765432097,0)" xlink:href="#am"/></g><path fill="#333" d="M24-248c93 1 206-16 204 79-1 75-69 88-152 82V0H24v-248zm52 121c47 0 100 7 100-41 0-47-54-39-100-39v80" id="aK"/><path fill="#333" d="M135-150c-39-12-60 13-60 57V0H25l-1-190h47c2 13-1 29 3 40 6-28 27-53 61-41v41" id="aL"/><path fill="#333" d="M185-48c-13 30-37 53-82 52C43 2 14-33 14-96s30-98 90-98c62 0 83 45 84 108H66c0 31 8 55 39 56 18 0 30-7 34-22zm-45-69c5-46-57-63-70-21-2 6-4 13-4 21h74" id="aM"/><path fill="#333" d="M137-138c1-29-70-34-71-4 15 46 118 7 119 86 1 83-164 76-172 9l43-7c4 19 20 25 44 25 33 8 57-30 24-41C81-84 22-81 20-136c-2-80 154-74 161-7" id="aN"/><path fill="#333" d="M85 4C-2 5 27-109 22-190h50c7 57-23 150 33 157 60-5 35-97 40-157h50l1 190h-47c-2-12 1-28-3-38-12 25-28 42-61 42" id="aO"/><g id="M"><use transform="matrix(0.043827160493827164,0,0,0.043827160493827164,0,0)" xlink:href="#aK"/><use transform="matrix(0.043827160493827164,0,0,0.043827160493827164,10.518518518518519,0)" xlink:href="#aL"/><use transform="matrix(0.043827160493827164,0,0,0.043827160493827164,16.654320987654323,0)" xlink:href="#aM"/><use transform="matrix(0.043827160493827164,0,0,0.043827160493827164,25.419753086419753,0)" xlink:href="#aN"/><use transform="matrix(0.043827160493827164,0,0,0.043827160493827164,34.18518518518518,0)" xlink:href="#aN"/><use transform="matrix(0.043827160493827164,0,0,0.043827160493827164,42.95061728395061,0)" xlink:href="#aO"/><use transform="matrix(0.043827160493827164,0,0,0.043827160493827164,52.54876543209876,0)" xlink:href="#aL"/><use transform="matrix(0.043827160493827164,0,0,0.043827160493827164,58.684567901234566,0)" xlink:href="#aM"/></g><path fill="#333" d="M240-174c0 40-23 61-54 70L253 0h-59l-57-94H76V0H24v-248c93 4 217-23 216 74zM76-134c48-2 112 12 112-38 0-48-66-32-112-35v73" id="aP"/><path fill="#333" d="M133-34C117-15 103 5 69 4 32 3 11-16 11-54c-1-60 55-63 116-61 1-26-3-47-28-47-18 1-26 9-28 27l-52-2c7-38 36-58 82-57s74 22 75 68l1 82c-1 14 12 18 25 15v27c-30 8-71 5-69-32zm-48 3c29 0 43-24 42-57-32 0-66-3-65 30 0 17 8 27 23 27" id="aQ"/><path fill="#333" d="M115-3C79 11 28 4 28-45v-112H4v-33h27l15-45h31v45h36v33H77v99c-1 23 16 31 38 25v30" id="aR"/><path fill="#333" d="M25-224v-37h50v37H25zM25 0v-190h50V0H25" id="aS"/><path fill="#333" d="M110-194c64 0 96 36 96 99 0 64-35 99-97 99-61 0-95-36-95-99 0-62 34-99 96-99zm-1 164c35 0 45-28 45-65 0-40-10-65-43-65-34 0-45 26-45 65 0 36 10 65 43 65" id="aT"/><g id="N"><use transform="matrix(0.043827160493827164,0,0,0.043827160493827164,0,0)" xlink:href="#aP"/><use transform="matrix(0.043827160493827164,0,0,0.043827160493827164,11.351234567901235,0)" xlink:href="#aQ"/><use transform="matrix(0.043827160493827164,0,0,0.043827160493827164,20.116666666666667,0)" xlink:href="#aR"/><use transform="matrix(0.043827160493827164,0,0,0.043827160493827164,25.3320987654321,0)" xlink:href="#aS"/><use transform="matrix(0.043827160493827164,0,0,0.043827160493827164,29.714814814814815,0)" xlink:href="#aT"/><use transform="matrix(0.043827160493827164,0,0,0.043827160493827164,39.31296296296296,0)" xlink:href="#aN"/></g><path fill="#333" d="M182-130c37 4 62 22 62 59C244 23 116-4 24 0v-248c84 5 203-23 205 63 0 31-19 50-47 55zM76-148c40-3 101 13 101-30 0-44-60-28-101-31v61zm0 110c48-3 116 14 116-37 0-48-69-32-116-35v72" id="aU"/><path fill="#333" d="M135-194c87-1 58 113 63 194h-50c-7-57 23-157-34-157-59 0-34 97-39 157H25l-1-190h47c2 12-1 28 3 38 12-26 28-41 61-42" id="aV"/><g id="O"><use transform="matrix(0.043827160493827164,0,0,0.043827160493827164,0,0)" xlink:href="#aU"/><use transform="matrix(0.043827160493827164,0,0,0.043827160493827164,11.351234567901235,0)" xlink:href="#aO"/><use transform="matrix(0.043827160493827164,0,0,0.043827160493827164,20.949382716049385,0)" xlink:href="#aL"/><use transform="matrix(0.043827160493827164,0,0,0.043827160493827164,27.085185185185185,0)" xlink:href="#aV"/><use transform="matrix(0.043827160493827164,0,0,0.043827160493827164,36.68333333333334,0)" xlink:href="#aM"/><use transform="matrix(0.043827160493827164,0,0,0.043827160493827164,45.44876543209877,0)" xlink:href="#aL"/></g><path fill="#333" d="M136-208V0H84v-208H4v-40h212v40h-80" id="aW"/><path fill="#333" d="M220-157c-53 9-28 100-34 157h-49v-107c1-27-5-49-29-50C55-147 81-57 75 0H25l-1-190h47c2 12-1 28 3 38 10-53 101-56 108 0 13-22 24-43 59-42 82 1 51 116 57 194h-49v-107c-1-25-5-48-29-50" id="aX"/><path fill="#333" d="M135-194c53 0 70 44 70 98 0 56-19 98-73 100-31 1-45-17-59-34 3 33 2 69 2 105H25l-1-265h48c2 10 0 23 3 31 11-24 29-35 60-35zM114-30c33 0 39-31 40-66 0-38-9-64-40-64-56 0-55 130 0 130" id="aY"/><g id="P"><use transform="matrix(0.043827160493827164,0,0,0.043827160493827164,0,0)" xlink:href="#aW"/><use transform="matrix(0.043827160493827164,0,0,0.043827160493827164,8.414814814814815,0)" xlink:href="#aM"/><use transform="matrix(0.043827160493827164,0,0,0.043827160493827164,17.18024691358025,0)" xlink:href="#aX"/><use transform="matrix(0.043827160493827164,0,0,0.043827160493827164,31.20493827160494,0)" xlink:href="#aY"/><use transform="matrix(0.043827160493827164,0,0,0.043827160493827164,40.803086419753086,0)" xlink:href="#aM"/><use transform="matrix(0.043827160493827164,0,0,0.043827160493827164,49.56851851851851,0)" xlink:href="#aL"/><use transform="matrix(0.043827160493827164,0,0,0.043827160493827164,55.70432098765433,0)" xlink:href="#aQ"/><use transform="matrix(0.043827160493827164,0,0,0.043827160493827164,64.46975308641976,0)" xlink:href="#aR"/><use transform="matrix(0.043827160493827164,0,0,0.043827160493827164,69.68518518518519,0)" xlink:href="#aO"/><use transform="matrix(0.043827160493827164,0,0,0.043827160493827164,79.28333333333333,0)" xlink:href="#aL"/><use transform="matrix(0.043827160493827164,0,0,0.043827160493827164,85.41913580246913,0)" xlink:href="#aM"/></g><path fill="#333" d="M24 0v-248h195v40H76v63h132v40H76v65h150V0H24" id="aZ"/><path fill="#333" d="M195-6C206 82 75 100 31 46c-4-6-6-13-8-21l49-6c3 16 16 24 34 25 40 0 42-37 40-79-11 22-30 35-61 35-53 0-70-43-70-97 0-56 18-96 73-97 30 0 46 14 59 34l2-30h47zm-90-29c32 0 41-27 41-63 0-35-9-62-40-62-32 0-39 29-40 63 0 36 9 62 39 62" id="ba"/><path fill="#333" d="M123 10C108 53 80 86 19 72V37c35 8 53-11 59-39L3-190h52l48 148c12-52 28-100 44-148h51" id="bb"/><g id="Q"><use transform="matrix(0.043827160493827164,0,0,0.043827160493827164,0,0)" xlink:href="#aZ"/><use transform="matrix(0.043827160493827164,0,0,0.043827160493827164,10.518518518518519,0)" xlink:href="#aV"/><use transform="matrix(0.043827160493827164,0,0,0.043827160493827164,20.116666666666667,0)" xlink:href="#aM"/><use transform="matrix(0.043827160493827164,0,0,0.043827160493827164,28.882098765432097,0)" xlink:href="#aL"/><use transform="matrix(0.043827160493827164,0,0,0.043827160493827164,35.0179012345679,0)" xlink:href="#ba"/><use transform="matrix(0.043827160493827164,0,0,0.043827160493827164,44.61604938271605,0)" xlink:href="#bb"/></g><path fill="#333" d="M25 0v-261h50V0H25" id="bc"/><path fill="#333" d="M190-63c-7 42-38 67-86 67-59 0-84-38-90-98-12-110 154-137 174-36l-49 2c-2-19-15-32-35-32-30 0-35 28-38 64-6 74 65 87 74 30" id="bd"/><g id="R"><use transform="matrix(0.043827160493827164,0,0,0.043827160493827164,0,0)" xlink:href="#aU"/><use transform="matrix(0.043827160493827164,0,0,0.043827160493827164,11.351234567901235,0)" xlink:href="#aQ"/><use transform="matrix(0.043827160493827164,0,0,0.043827160493827164,20.116666666666667,0)" xlink:href="#bc"/><use transform="matrix(0.043827160493827164,0,0,0.043827160493827164,24.499382716049386,0)" xlink:href="#aQ"/><use transform="matrix(0.043827160493827164,0,0,0.043827160493827164,33.26481481481481,0)" xlink:href="#aV"/><use transform="matrix(0.043827160493827164,0,0,0.043827160493827164,42.86296296296296,0)" xlink:href="#bd"/><use transform="matrix(0.043827160493827164,0,0,0.043827160493827164,51.62839506172839,0)" xlink:href="#aM"/></g><path fill="#333" d="M114-157C55-157 80-60 75 0H25v-261h50l-1 109c12-26 28-41 61-42 86-1 58 113 63 194h-50c-7-57 23-157-34-157" id="be"/><g id="S"><use transform="matrix(0.043827160493827164,0,0,0.043827160493827164,0,0)" xlink:href="#aZ"/><use transform="matrix(0.043827160493827164,0,0,0.043827160493827164,10.518518518518519,0)" xlink:href="#aV"/><use transform="matrix(0.043827160493827164,0,0,0.043827160493827164,20.116666666666667,0)" xlink:href="#aR"/><use transform="matrix(0.043827160493827164,0,0,0.043827160493827164,25.3320987654321,0)" xlink:href="#be"/><use transform="matrix(0.043827160493827164,0,0,0.043827160493827164,34.93024691358025,0)" xlink:href="#aQ"/><use transform="matrix(0.043827160493827164,0,0,0.043827160493827164,43.69567901234568,0)" xlink:href="#bc"/><use transform="matrix(0.043827160493827164,0,0,0.043827160493827164,48.0783950617284,0)" xlink:href="#aY"/><use transform="matrix(0.043827160493827164,0,0,0.043827160493827164,57.676543209876534,0)" xlink:href="#bb"/></g></defs></g></svg>